<?xml version="1.0" standalone="no"?><!DOCTYPE svg PUBLIC "-//W3C//DTD SVG 1.1//EN" "http://www.w3.org/Graphics/SVG/1.1/DTD/svg11.dtd"><svg class="icon" width="200px" height="187.55px" viewBox="0 0 1092 1024" version="1.1" xmlns="http://www.w3.org/2000/svg"><path   d="M110.927787 673.60472c34.131627-35.838208 102.39488-53.859707 204.78976-53.927971 34.131627 215.575355 76.79616 323.363032 127.993601 323.363032 76.79616 0 76.79616 0 76.79616-26.895722a302.884056 302.884056 0 0 1-26.486142-53.92797c13.174808-52.767495 19.455027-107.173308 18.567605-161.783911 0.40958-22.799927-23.346033-42.050164-17.680183-53.654917A46.692065 46.692065 0 0 1 546.106028 619.813276a46.145959 46.145959 0 0 1 51.19744 26.895722c5.66585 11.673016-18.089762 30.718464-17.748446 53.92797a619.625552 619.625552 0 0 0 18.704132 161.510858 308.0038 308.0038 0 0 1-26.554406 54.201023c0 26.963985 0 26.963985 76.79616 26.963985 51.19744 0 93.861974-107.855941 127.993601-323.363031 102.39488 0 170.658134 18.021499 204.78976 53.92797a239.535757 239.535757 0 0 1 76.79616 168.200656v127.993601c0 14.335283-5.46106 28.056197-15.017915 38.159158a49.832175 49.832175 0 0 1-36.179525 15.768812H85.329067a49.832175 49.832175 0 0 1-36.179524-15.768812 55.293235 55.293235 0 0 1-15.017916-38.159158v-127.993601a239.467493 239.467493 0 0 1 76.79616-168.610236v0.136527z m179.19104-404.118461c0.068263 96.455977 48.944753 185.47126 127.993601 233.392064a244.996817 244.996817 0 0 0 255.9872 0c106.490675-66.147093 152.909688-203.561022 110.245155-326.161825C741.611986 53.979168 622.083029-18.584671 500.574438 4.146993c-121.508591 22.799927-210.250821 134.546873-210.455611 265.271003z"  /></svg>