<?xml version="1.0" standalone="no"?><!DOCTYPE svg PUBLIC "-//W3C//DTD SVG 1.1//EN" "http://www.w3.org/Graphics/SVG/1.1/DTD/svg11.dtd"><svg class="icon" width="200px" height="166.78px" viewBox="0 0 1228 1024" version="1.1" xmlns="http://www.w3.org/2000/svg"><path   d="M227.675016 289.572721h476.699365c17.560722 0 32.612769 16.229589 33.892706 34.967852 0 17.40713-18.840658 36.19659-36.350183 36.19659H223.220839c-17.560722 0-28.824159-18.738263-28.824159-36.19659 1.228739-17.509525 15.666417-34.967852 33.278336-34.967852m342.40848 458.626669H222.043298c-17.560722 0-35.121444-21.19574-35.121444-39.319634 0-17.458327 15.052047-32.40798 32.612769-32.40798h358.791661a324.489376 324.489376 0 0 1 55.19084-119.18764h-409.579521c-17.560722 0-28.875356-18.738263-28.875356-36.19659 0-17.458327 15.052047-34.967852 32.612769-34.967852h479.873607a318.345683 318.345683 0 0 1 183.133243-56.777961c15.052047 0 30.104095 1.279936 44.541773 3.123044V159.172841c0-73.00755-39.524424-123.539423-122.361882-123.539423h-109.716114c1.228739 5.631718 1.894305 11.826609 1.894305 18.072697 0 44.951352-32.663967 89.851507-72.188391 89.851507H294.846058c-41.367532 0-74.031498-44.285786-74.031499-89.851507 0-6.246088 0.665567-11.877806 1.894306-18.072697H111.661617C21.963702 35.633418 0 86.165292 0 159.172841v721.320734c0 77.973701 31.384031 121.696315 117.907705 121.696316h578.940653a318.908855 318.908855 0 0 1-126.713665-253.939304M353.159942 107.309835h221.9921c25.752312 0 47.716014-24.318784 47.716015-53.654918 0-29.950502-22.014899-53.654917-48.944753-53.654917H353.159942c-26.981051 0-48.944753 23.704415-48.944753 53.654917s21.963702 53.654917 48.944753 53.654918m656.709565 678.878056a124.512174 124.512174 0 0 1-28.875357 42.493875 125.177741 125.177741 0 0 1-42.647467 28.670566 134.546873 134.546873 0 0 1-52.733364 10.59787c-18.789461 0-36.350182-3.737413-52.630968-10.59787-16.946353-6.860457-30.718464-16.229589-43.313034-28.670566a124.563372 124.563372 0 0 1-28.824159-42.493875 132.754962 132.754962 0 0 1-10.649068-52.374982c0-18.123894 3.071846-35.582221 10.649068-51.811809a135.161242 135.161242 0 0 1 72.137193-70.498875 139.257037 139.257037 0 0 1 52.682166-10.59787c18.789461 0 36.350182 3.737413 52.682166 10.59787 16.280786 6.860457 30.718464 16.229589 42.647467 28.670566 11.929004 11.877806 21.963702 26.213089 28.875357 41.828309 6.860457 15.615219 10.649068 33.073546 10.649067 51.811809 0 18.687066-3.123044 36.19659-10.649067 52.426179m180.010199 202.127494c-0.665567-9.317934-6.911654-20.581371-18.226289-33.687916-3.071846-3.737413-10.034698-9.983501-19.455027-19.352632-9.983501-10.59787-21.298135-21.19574-33.227139-33.073547l-45.770511-43.671416c13.823309-21.19574 23.858007-43.671416 29.489725-68.60457 6.246088-24.984351 8.140393-49.303135 6.246088-74.236288a217.79391 217.79391 0 0 0-19.455027-73.058747 226.292685 226.292685 0 0 0-44.541773-64.867157 219.022649 219.022649 0 0 0-75.874606-48.637568 240.474376 240.474376 0 0 0-85.294936-16.280786c-28.20979 0-57.085146 5.631718-84.680565 16.229589a220.353782 220.353782 0 0 0-74.645868 48.637568c-21.912504 21.861307-38.910054 46.231288-50.173492 73.673116a214.312484 214.312484 0 0 0 0 167.21084c11.263437 27.493025 27.646618 51.811809 50.173492 73.007549 18.840658 19.352632 40.80436 34.302285 64.611169 44.951353 23.858007 10.59787 48.279186 16.229589 73.417129 18.072696 25.086746 1.279936 50.173491-1.228739 75.260237-6.860457 25.086746-5.631718 48.893555-14.949653 71.471627-28.056197l83.451827 74.236288c5.631718 4.966152 12.543373 9.369132 20.069397 14.335283 7.526024 4.40298 15.666417 8.140393 23.806809 11.263437 8.19159 3.071846 16.331983 4.351782 23.858008 4.351783a25.342733 25.342733 0 0 0 18.175091-8.703565c8.80596-8.754762 12.543373-17.509525 11.263437-26.878656"  /></svg>