<?xml version="1.0" standalone="no"?><!DOCTYPE svg PUBLIC "-//W3C//DTD SVG 1.1//EN" "http://www.w3.org/Graphics/SVG/1.1/DTD/svg11.dtd"><svg class="icon" width="200px" height="200.00px" viewBox="0 0 1024 1024" version="1.1" xmlns="http://www.w3.org/2000/svg"><path d="M0 0m341.333333 0l341.333334 0q341.333333 0 341.333333 341.333333l0 341.333334q0 341.333333-341.333333 341.333333l-341.333334 0q-341.333333 0-341.333333-341.333333l0-341.333334q0-341.333333 341.333333-341.333333Z" fill="#2C64FF" /><path d="M505.386667 492.8a36.608 36.608 0 0 0 0-51.712 36.693333 36.693333 0 0 0-51.712 0l-116.394667 116.309333a91.605333 91.605333 0 0 0 0 129.322667 91.52 91.52 0 0 0 129.28 0l219.861333-219.818667a91.434667 91.434667 0 1 0-129.322666-129.28l-6.442667 6.485334a27.477333 27.477333 0 0 1-38.826667-38.826667l6.485334-6.485333a146.432 146.432 0 0 1 206.890666 0 146.432 146.432 0 0 1 0 206.933333l-219.861333 219.818667a146.346667 146.346667 0 0 1-206.506667-0.341334 146.346667 146.346667 0 0 1-0.384-206.506666l116.437334-116.437334a91.52 91.52 0 0 1 129.28 0c35.626667 35.626667 35.712 93.44 0 129.322667l-109.952 109.952a27.477333 27.477333 0 0 1-38.784-38.826667l109.952-109.909333z" fill="#FFFFFF" /></svg>