<?xml version="1.0" standalone="no"?><!DOCTYPE svg PUBLIC "-//W3C//DTD SVG 1.1//EN" "http://www.w3.org/Graphics/SVG/1.1/DTD/svg11.dtd"><svg class="icon" width="200px" height="200.00px" viewBox="0 0 1024 1024" version="1.1" xmlns="http://www.w3.org/2000/svg"><path   d="M416 546.592L619.232 384H1024V0H416v546.592zM480 64h480v256H596.768L480 413.408V64zM928 576c0-70.592-57.408-128-128-128s-128 57.408-128 128 57.408 128 128 128 128-57.408 128-128z m-192 0c0-35.296 28.704-64 64-64s64 28.704 64 64-28.704 64-64 64-64-28.704-64-64zM96 576c0 70.592 57.408 128 128 128s128-57.408 128-128-57.408-128-128-128-128 57.408-128 128z m192 0c0 35.296-28.704 64-64 64s-64-28.704-64-64 28.704-64 64-64 64 28.704 64 64zM448 864.576a96.384 96.384 0 0 0-47.2-82.72C365.472 760.928 306.08 736 224 736c-83.2 0-142.272 24.832-177.216 45.728A96.576 96.576 0 0 0 0 864.224V992h448v-127.424zM384 928H64v-63.776c0-11.424 5.856-21.728 15.584-27.552C107.584 819.936 155.392 800 224 800c67.616 0 115.744 20.064 144.256 36.928a31.808 31.808 0 0 1 15.744 27.648V928zM976.8 781.856C941.472 760.928 882.08 736 800 736c-83.2 0-142.272 24.832-177.216 45.728A96.576 96.576 0 0 0 576 864.224V992h448v-127.424a96.384 96.384 0 0 0-47.2-82.72zM960 928H640v-63.776c0-11.424 5.856-21.728 15.584-27.552C683.584 819.936 731.392 800 800 800c67.616 0 115.744 20.064 144.256 36.928a31.808 31.808 0 0 1 15.744 27.648V928z"  /></svg>