<?xml version="1.0" standalone="no"?><!DOCTYPE svg PUBLIC "-//W3C//DTD SVG 1.1//EN" "http://www.w3.org/Graphics/SVG/1.1/DTD/svg11.dtd"><svg class="icon" width="200px" height="200.00px" viewBox="0 0 1024 1024" version="1.1" xmlns="http://www.w3.org/2000/svg"><path   d="M902.998236 291.126631v-26.367548c0.361199-53.096296-42.621517-96.440212-96.079012-96.801411h-305.935802c-6.501587 0-13.003175-2.528395-17.698766-7.223986l-24.922751-25.283951c-18.059965-18.059965-42.260317-28.534744-67.905468-28.534744H171.569665c-53.096296 0.361199-96.079012 43.343915-96.079012 96.440212v614.4c-0.361199 53.096296 42.621517 96.440212 96.079012 96.801411h726.371781c53.096296-0.361199 96.079012-43.705115 95.717813-96.801411V387.566843c0.361199-50.929101-39.370723-93.550617-90.661023-96.440212zM196.853616 387.566843v456.194709h-25.283951c-14.086772-0.361199-25.64515-11.919577-25.283951-26.006349V203.355203c-0.361199-14.086772 11.197178-26.006349 25.283951-26.006349h219.247972c6.501587 0 13.003175 2.889594 17.698765 7.585185l24.922751 25.28395c18.059965 18.059965 42.260317 28.534744 67.905468 28.534745h305.574603c14.086772 0.361199 25.64515 11.919577 25.283951 26.006349v26.006349H292.571429c-53.096296 0.361199-96.079012 43.705115-95.717813 96.801411z m726.371781 430.549559c0.361199 14.086772-11.197178 26.006349-25.283951 26.006349H267.287478V387.566843c-0.361199-14.086772 11.197178-26.006349 25.283951-26.006349h605.370017c14.086772 0.361199 25.64515 11.919577 25.283951 26.006349v430.549559zM636.071958 653.048325h-227.555556c-20.949559 0-37.203527 15.17037-37.203527 34.675132s16.253968 34.675132 37.203527 34.675132H635.710758c9.752381 0 19.143563-3.250794 26.367549-10.11358 6.862787-6.140388 10.835979-15.17037 10.835979-24.561552 0-8.668783-3.250794-17.337566-9.391182-23.477954-7.223986-6.862787-16.976367-11.197178-27.451146-11.197178zM765.381305 478.950265h-356.864903c-20.949559 0-37.203527 15.17037-37.203527 34.675132s16.253968 34.675132 37.203527 34.675132h356.503704c9.752381 0 19.143563-3.611993 26.367548-10.11358 6.862787-6.140388 10.835979-15.17037 10.835979-24.561552 0.361199-8.668783-3.250794-17.337566-9.391182-23.477954-7.223986-7.223986-16.976367-11.197178-27.451146-11.197178z" /></svg>