<?xml version="1.0" standalone="no"?><!DOCTYPE svg PUBLIC "-//W3C//DTD SVG 1.1//EN" "http://www.w3.org/Graphics/SVG/1.1/DTD/svg11.dtd"><svg class="icon" width="200px" height="200.00px" viewBox="0 0 1024 1024" version="1.1" xmlns="http://www.w3.org/2000/svg"><path   d="M951.921778 62.976a21.333333 21.333333 0 0 0-22.584889-4.551111L73.614222 388.266667a28.672 28.672 0 0 0-15.872 26.168889 27.420444 27.420444 0 0 0 13.425778 27.136l300.202667 180.736-4.551111 178.289777a30.492444 30.492444 0 0 0 12.515555 25.884445c7.338667 5.688889 17.635556 5.688889 24.974222 0l135.281778-88.064a32.369778 32.369778 0 0 0 5.802667-39.594667 21.333333 21.333333 0 0 0-32.654222-10.069333l-98.417778 55.182222 3.413333-139.946667a30.492444 30.492444 0 0 0-13.425778-27.079111L141.255111 418.702222 440.888889 305.322667l470.243555-178.005334-52.963555 493.397334-28.103111 263.054222-203.264-150.300445a21.959111 21.959111 0 0 0-32.597334 10.126223 32.256 32.256 0 0 0 7.964445 39.594666l234.951111 173.738667a24.120889 24.120889 0 0 0 13.084444 6.087111 15.587556 15.587556 0 0 0 10.069334-3.413333 30.321778 30.321778 0 0 0 12.515555-22.528l86.186667-846.961778a25.315556 25.315556 0 0 0-6.940444-27.079111h-0.056889z"  /><path   d="M835.811556 265.386667c11.946667-10.524444 13.767111-28.444444 4.209777-41.130667a24.064 24.064 0 0 0-38.968889 0L608.483556 431.786667 471.04 577.763556a33.792 33.792 0 0 0 0 40.504888 20.423111 20.423111 0 0 0 17.066667 7.964445c6.542222 0 12.8-2.844444 17.066666-7.964445l145.351111-154.737777 185.287112-198.144z"  /></svg>