<?xml version="1.0" standalone="no"?><!DOCTYPE svg PUBLIC "-//W3C//DTD SVG 1.1//EN" "http://www.w3.org/Graphics/SVG/1.1/DTD/svg11.dtd"><svg class="icon" width="200px" height="200.00px" viewBox="0 0 1024 1024" version="1.1" xmlns="http://www.w3.org/2000/svg"><path   d="M239.431819 324.589663h422.588539c16.673711 0 30.187422-13.512533 30.187422-30.181527 0-16.673711-13.513712-30.187422-30.187422-30.187422H239.431819c-16.670173 0-30.188601 13.513712-30.188601 30.187422 0 16.668994 13.518428 30.181527 30.188601 30.181527z m0 211.298985h422.588539c16.673711 0 30.187422-13.518428 30.187422-30.187422s-13.513712-30.187422-30.187422-30.187422H239.431819c-16.670173 0-30.188601 13.518428-30.188601 30.187422s13.518428 30.187422 30.188601 30.187422z m224.405907 150.925321H238.033402c-15.896681 0-28.790184 13.512533-28.790184 30.182706 0 16.673711 12.893503 30.187422 28.790184 30.187422h225.804324c15.896681 0 28.785468-13.513712 28.785467-30.187422 0-16.670173-8.389325-30.182706-24.287185-30.182706h-4.498282z m17.075785 0M728.570171 986.022237c-121.264958 0-219.921774-98.656816-219.921774-219.921774 0-121.263778 98.656816-219.919416 219.921774-219.919415 121.263778 0 219.919416 98.655637 219.919415 219.919415 0 121.264958-98.655637 219.921774-219.919415 219.921774z m0-392.675848c-95.258638 0-172.757611 77.497794-172.757612 172.755253 0 95.258638 77.498973 172.757611 172.757612 172.757612 95.257459 0 172.755253-77.498973 172.755253-172.757612 0-95.258638-77.497794-172.755253-172.755253-172.755253zM525.876286 898.109417H181.925735c-18.22777 0-33.050287-15.637278-33.050287-34.834271V148.129665c0-19.196993 14.822517-34.834271 33.050287-34.834272h537.566513c18.261964 0 33.084481 15.637278 33.084481 34.834272v382.119329c16.74092 1.308806 38.360972 4.267178 60.368949 10.761682V148.129665c0-52.492534-41.927761-95.20322-93.45343-95.203221H181.925735c-51.491475 0-93.419236 42.710687-93.419236 95.203221v715.145481c0 52.493713 41.928941 95.20322 93.419236 95.20322h399.060696c-19.073187-17.918844-40.674374-40.035299-55.110145-60.368949zM734.141437 715.389556l27.615797 55.952025 61.747321 8.971803-44.682148 43.553746 10.547086 61.49971-55.228056-29.036617-55.229234 29.036617 10.548265-61.49971-44.682149-43.553746 61.748501-8.971803zM844.286264 731.805043m-33.609182 0a33.609182 33.609182 0 1 0 67.218365 0 33.609182 33.609182 0 1 0-67.218365 0ZM782.389196 655.762263m-33.609182 0a33.609182 33.609182 0 1 0 67.218365 0 33.609182 33.609182 0 1 0-67.218365 0ZM676.859383 659.88559m-33.609183 0a33.609182 33.609182 0 1 0 67.218365 0 33.609182 33.609182 0 1 0-67.218365 0ZM607.291064 731.805043m-33.609183 0a33.609182 33.609182 0 1 0 67.218365 0 33.609182 33.609182 0 1 0-67.218365 0Z" /></svg>