<?xml version="1.0" standalone="no"?><!DOCTYPE svg PUBLIC "-//W3C//DTD SVG 1.1//EN" "http://www.w3.org/Graphics/SVG/1.1/DTD/svg11.dtd"><svg class="icon" width="200px" height="200.00px" viewBox="0 0 1024 1024" version="1.1" xmlns="http://www.w3.org/2000/svg"><path   d="M64 128.096A64 64 0 0 1 128.096 64h287.808A64 64 0 0 1 480 128.096v287.808A64 64 0 0 1 415.904 480H128.096A64 64 0 0 1 64 415.904V128.096z m64 31.84v224.128c0 17.664 14.304 31.936 31.936 31.936h224.128a31.904 31.904 0 0 0 31.936-31.936V159.936A31.904 31.904 0 0 0 384.064 128H159.936A31.904 31.904 0 0 0 128 159.936zM64 608.096A64 64 0 0 1 128.096 544h287.808A64 64 0 0 1 480 608.096v287.808A64 64 0 0 1 415.904 960H128.096A64 64 0 0 1 64 895.904v-287.808zM544 608h416v64H544v-64z m0 224h416v64H544v-64z m0-704h416v64H544V128z m0 224h416v64H544v-64zM128 639.936v224.128c0 17.664 14.304 31.936 31.936 31.936h224.128a31.904 31.904 0 0 0 31.936-31.936v-224.128a31.904 31.904 0 0 0-31.936-31.936H159.936a31.904 31.904 0 0 0-31.936 31.936z"  /></svg>