<?xml version="1.0" standalone="no"?><!DOCTYPE svg PUBLIC "-//W3C//DTD SVG 1.1//EN" "http://www.w3.org/Graphics/SVG/1.1/DTD/svg11.dtd"><svg class="icon" width="200px" height="200.00px" viewBox="0 0 1024 1024" version="1.1" xmlns="http://www.w3.org/2000/svg"><path   d="M318 474h389c17.673 0 32 14.327 32 32 0 17.673-14.327 32-32 32H318c-17.673 0-32-14.327-32-32 0-17.673 14.327-32 32-32z m0 128h389c17.673 0 32 14.327 32 32 0 17.673-14.327 32-32 32H318c-17.673 0-32-14.327-32-32 0-17.673 14.327-32 32-32z m0 128h389c17.673 0 32 14.327 32 32 0 17.673-14.327 32-32 32H318c-17.673 0-32-14.327-32-32 0-17.673 14.327-32 32-32zM826 64c38.66 0 70 31.34 70 70v756c0 38.66-31.34 70-70 70H198c-38.66 0-70-31.34-70-70V134c0-38.66 31.34-70 70-70h628z m-301 64v168.72l83.081-47.756 83.069 47.756V128H525z m307 726.26V169.74c0-23.053-18.851-41.74-42.105-41.74h-25.263v208.696c-0.01 21.778-16.909 39.889-38.81 41.593h-0.548l-1.263 0.062h-4l-1.306-0.104-0.79-0.073-1.273-0.157-0.831-0.125-1.169-0.209c-0.316-0.062-0.62-0.114-0.926-0.187l-1.053-0.23-1.052-0.26-0.885-0.251-1.168-0.355-0.747-0.25-1.264-0.45-0.642-0.25-1.326-0.553-0.579-0.26a38.964 38.964 0 0 1-1.326-0.637l-0.59-0.292-1.231-0.668-0.38-0.209-88.526-50.546-88.494 50.63-0.095 0.052c-0.58 0.334-1.169 0.647-1.769 0.95l-0.094 0.052c-0.6 0.302-1.2 0.594-1.821 0.866h-0.116c-0.59 0.26-1.18 0.511-1.78 0.74l-0.22 0.084c-0.547 0.22-1.105 0.418-1.674 0.605l-0.358 0.115c-0.473 0.167-1.02 0.324-1.526 0.47l-0.547 0.146c-0.442 0.125-0.895 0.24-1.348 0.344l-0.747 0.167-1.18 0.24-0.936 0.167-1.053 0.146-1.105 0.136-0.916 0.094-1.21 0.094h-5.305l-0.642-0.053a27.042 27.042 0 0 1-1.558-0.146h-0.18a42.087 42.087 0 0 1-18.662-6.939l-0.18-0.125c-0.473-0.355-0.957-0.7-1.42-1.043l-0.653-0.512c-0.305-0.23-0.642-0.5-0.916-0.72-0.274-0.219-0.558-0.48-0.8-0.688-0.242-0.21-0.463-0.407-0.726-0.637-0.263-0.23-0.505-0.47-0.758-0.71l-0.737-0.71c-0.21-0.208-0.326-0.343-0.61-0.636-0.285-0.292-0.569-0.584-0.843-0.887l-0.42-0.49c-0.327-0.376-0.653-0.751-0.98-1.148l-0.22-0.282c-0.39-0.48-0.759-0.96-1.116-1.46v-0.063a41.606 41.606 0 0 1-5.81-11.249c-0.2-0.605-0.39-1.22-0.57-1.836l-0.063-0.23c-0.147-0.574-0.284-1.075-0.41-1.617-0.042-0.167-0.116-0.324-0.116-0.49-0.105-0.46-0.19-0.919-0.284-1.378l-0.126-0.741c-0.064-0.386-0.18-0.772-0.18-1.169l-0.126-0.96-0.094-1.043c-0.032-0.376-0.032-0.824-0.085-1.127-0.052-0.303-0.052-0.605-0.052-0.918V128h-227.21C210.85 128 192 146.687 192 169.74v684.52c0 23.053 18.851 41.74 42.105 41.74h555.79C813.149 896 832 877.313 832 854.26z" /></svg>