<?xml version="1.0" standalone="no"?><!DOCTYPE svg PUBLIC "-//W3C//DTD SVG 1.1//EN" "http://www.w3.org/Graphics/SVG/1.1/DTD/svg11.dtd"><svg class="icon" width="200px" height="200.00px" viewBox="0 0 1024 1024" version="1.1" xmlns="http://www.w3.org/2000/svg"><path   d="M311.862032 676.905622c-113.0992-63.794297-188.566932-179.760656-188.566932-312.315581C123.448698 163.172091 297.372637 0 512 0s388.653701 163.172091 388.653701 364.436443c0 132.554924-75.518931 248.674881-188.566932 312.315581a182.883812 182.883812 0 0 1-43.212189 86.731573h-313.851559a184.317392 184.317392 0 0 1-43.160989-86.577975zM789.807269 399.354349c0.870388-152.369044-123.441453-276.476088-277.75607-277.602472-24.575652 0-37.017076 11.673435-37.017076 34.61071 0 5.734319 12.441424 17.254156 37.017076 17.254156 118.526323 0 222.153657 97.278624 222.153657 225.737606 0 5.68312 12.492623 17.356554 36.965877 17.356555 6.195112-0.153598 18.636536-11.827033 18.636536-17.356555z m-444.307313 451.065618a35.839493 35.839493 0 0 1 36.914678-34.508312h259.273131a34.713109 34.713109 0 1 1 0 69.27262H382.465833a35.839493 35.839493 0 0 1-36.965877-34.917906z m315.848331 87.038768c-27.238015 51.199276-83.915613 86.526776-149.297088 86.526776a168.087222 168.087222 0 0 1-149.297087-86.731573z" /></svg>