<?xml version="1.0" standalone="no"?><!DOCTYPE svg PUBLIC "-//W3C//DTD SVG 1.1//EN" "http://www.w3.org/Graphics/SVG/1.1/DTD/svg11.dtd"><svg class="icon" width="200px" height="200.00px" viewBox="0 0 1024 1024" version="1.1" xmlns="http://www.w3.org/2000/svg"><path   d="M295.397053 1019.365053c-16.437895-0.485053-29.642105-24.414316-29.696-53.894737 0-29.372632 13.204211-53.355789 29.696-53.894737h429.487158c16.491789 0.485053 29.696 24.468211 29.696 53.894737s-13.204211 53.409684-29.696 53.894737H295.397053zM872.448 0.538947H147.833263a120.724211 120.724211 0 0 0-120.72421 120.724211v557.702737a120.724211 120.724211 0 0 0 120.72421 120.72421H872.555789a120.724211 120.724211 0 0 0 120.724211-120.72421V121.263158A120.778105 120.778105 0 0 0 872.555789 0.485053z m-44.032 246.837895l-232.825263 273.893053c-1.562947 1.832421-1.562947 1.832421-3.233684 3.395368a42.307368 42.307368 0 0 1-59.715369-1.616842v-0.053895L401.138526 383.730526 235.196632 534.258526a30.181053 30.181053 0 0 1-40.528843-44.678737l179.092211-162.546526a42.253474 42.253474 0 0 1 59.176421 2.263579L562.661053 466.728421l219.728842-258.533053a30.181053 30.181053 0 0 1 46.026105 39.127579z"  /></svg>