<?xml version="1.0" standalone="no"?><!DOCTYPE svg PUBLIC "-//W3C//DTD SVG 1.1//EN" "http://www.w3.org/Graphics/SVG/1.1/DTD/svg11.dtd"><svg class="icon" width="200px" height="150.04px" viewBox="0 0 1365 1024" version="1.1" xmlns="http://www.w3.org/2000/svg"><path   d="M1125.905067 109.100373H406.213973c-18.527573 0-33.629867 14.90944-33.87392 33.437014 0 17.93024 15.1552 33.43872 33.87392 33.43872h723.93728v712.999253c0 36.893013-32.756053 67.094187-72.69888 67.094187H378.190507c-40.021333 0-72.72448-30.199467-72.72448-67.094187v-47.721813h24.594773c22.145707 0 40.10496-18.174293 40.10496-40.538454v-60.72832c0.052907-10.717867-4.135253-21.005653-11.6736-28.5696-7.507627-7.616853-17.739093-11.97056-28.43136-12.025173h-24.594773v-121.562453h24.594773c22.145707 0 40.10496-18.174293 40.10496-40.511147v-60.808533a40.251733 40.251733 0 0 0-11.6736-28.567894 40.198827 40.198827 0 0 0-28.43136-11.972266h-24.594773V314.436267h24.594773c22.145707 0 40.10496-18.174293 40.10496-40.567467v-60.726613a40.2688 40.2688 0 0 0-11.6736-28.5952 40.198827 40.198827 0 0 0-28.43136-11.972267h-24.594773V131.628373c0-36.89472 32.703147-67.094187 72.72448-67.094186h679.261866c31.39584 0.001707 58.330453 18.665813 68.452694 44.566186zM266.12224 293.976747c-15.209813 0-27.508053-13.605547-27.508053-30.365014v-40.511146c0-16.759467 12.29824-30.41792 27.508053-30.41792h55.067307c15.208107 0 27.506347 13.60384 27.506346 30.363306v40.512854c0 16.73216-12.29824 30.363307-27.506346 30.363306h-55.067307v0.054614z m0 263.17824c-15.209813 0-27.508053-13.605547-27.508053-30.365014v-40.456533c0-16.759467 12.29824-30.365013 27.508053-30.365013h55.067307c15.208107 0 27.506347 13.605547 27.506346 30.365013v40.456533c0 16.759467-12.29824 30.365013-27.506346 30.365014h-55.067307z m55.067307 263.20384h-55.067307c-15.209813 0-27.508053-13.602133-27.508053-30.363307v-40.48384c0-16.761173 12.29824-30.365013 27.508053-30.365013h55.067307c15.208107 0 27.506347 13.60384 27.506346 30.365013v40.48384c0 16.761173-12.29824 30.363307-27.506346 30.363307z m591.737173-170.7008c-26.448213-16.81408-102.73792-27.912533-102.73792-27.912534s-49.51552 50.280107-70.51776 50.280107c-21.005653 0-70.44096-50.280107-70.44096-50.280107s-76.289707 11.10016-102.76352 27.861334c-26.473813 16.868693-38.173013 105.890133-38.173013 105.890133h423.48544s-7.72608-86.085973-38.961494-105.890133l0.109227 0.0512z m-172.822187-72.506027c67.689813 0 122.54208-54.877867 122.54208-122.596693 0-67.69152-54.852267-122.569387-122.54208-122.569387-67.720533 0-122.5984 54.877867-122.5984 122.569387 0 67.718827 54.879573 122.596693 122.5984 122.596693z m0 0" /></svg>