<?xml version="1.0" standalone="no"?><!DOCTYPE svg PUBLIC "-//W3C//DTD SVG 1.1//EN" "http://www.w3.org/Graphics/SVG/1.1/DTD/svg11.dtd"><svg class="icon" width="200px" height="200.00px" viewBox="0 0 1024 1024" version="1.1" xmlns="http://www.w3.org/2000/svg"><path   d="M889.183 200.959 144.095 200.959c-8.095 0-14.655 6.56-14.655 14.655l0 67.777c0 8.095 6.56 14.655 14.655 14.655l745.053 0c8.1 0 14.66-6.56 14.66-14.655l0-67.777C903.838 207.519 897.278 200.959 889.183 200.959zM889.183 475.584 144.095 475.584c-8.095 0-14.655 6.56-14.655 14.655l0 67.775c0 8.095 6.56 14.655 14.655 14.655l745.053 0c8.1 0 14.66-6.56 14.66-14.655l0-67.775C903.838 482.144 897.278 475.584 889.183 475.584zM889.183 720.828 144.095 720.828c-8.095 0-14.655 6.56-14.655 14.66l0 67.775c0 8.095 6.56 14.655 14.655 14.655l745.053 0c8.1 0 14.66-6.56 14.66-14.655l0-67.775C903.838 727.388 897.278 720.828 889.183 720.828z" /></svg>