<?xml version="1.0" standalone="no"?><!DOCTYPE svg PUBLIC "-//W3C//DTD SVG 1.1//EN" "http://www.w3.org/Graphics/SVG/1.1/DTD/svg11.dtd"><svg class="icon" width="200px" height="200.00px" viewBox="0 0 1024 1024" version="1.1" xmlns="http://www.w3.org/2000/svg"><path   d="M784.893799 310.274141H419.838894c-27.135919 0-49.407852-21.606335-49.407852-47.974256 0-26.367921 22.323133-48.025456 49.407852-48.025456h365.054905c27.084719 0 49.356652 21.657535 49.356652 48.025456 0 26.367921-22.271933 48.025456-49.407852 48.025456m0 250.572048H419.838894c-27.135919 0-49.407852-21.657535-49.407852-48.025456 0-26.316721 22.323133-48.025456 49.407852-48.025456h365.054905c27.084719 0 49.356652 21.708735 49.356652 48.025456 0 26.367921-22.271933 48.025456-49.407852 48.025456m0 250.572049H419.838894c-27.135919 0-49.407852-21.657535-49.407852-48.025456 0-26.316721 22.323133-47.974256 49.407852-47.974256h365.054905c27.084719 0 49.356652 21.657535 49.356652 47.974256 0 26.367921-22.271933 48.025456-49.407852 48.025456M239.154636 310.325341c-27.135919 0-49.407852-21.657535-49.407852-48.025456 0-26.367921 22.271933-48.025456 49.407852-48.025456 27.084719 0 49.356652 21.657535 49.356652 48.025456 0 26.367921-22.271933 48.025456-49.356652 48.025456m0 250.572048c-27.135919 0-49.407852-21.657535-49.407852-48.025456 0-26.316721 22.271933-48.025456 49.407852-48.025456 27.084719 0 49.356652 21.708735 49.356652 48.025456 0 26.367921-22.271933 48.025456-49.356652 48.025456m0 250.572049c-27.135919 0-49.407852-21.657535-49.407852-48.025456 0-26.316721 22.271933-47.974256 49.407852-47.974256 27.084719 0 49.356652 21.657535 49.356652 47.974256 0 26.367921-22.271933 48.025456-49.356652 48.025456M907.159032 0.003072H116.838203C80.691112 0.003072 51.2 28.674986 51.2 63.798081v896.40691C51.2 995.328086 80.691112 1024 116.838203 1024h790.320829c36.147092 0 65.638203-28.671914 65.638203-63.795009V64.412479A65.023805 65.023805 0 0 0 907.159032 0.003072"  /></svg>