<?xml version="1.0" standalone="no"?><!DOCTYPE svg PUBLIC "-//W3C//DTD SVG 1.1//EN" "http://www.w3.org/Graphics/SVG/1.1/DTD/svg11.dtd"><svg class="icon" width="200px" height="200.00px" viewBox="0 0 1024 1024" version="1.1" xmlns="http://www.w3.org/2000/svg"><path   d="M726.03648 452.66944L444.40576 703.00672 297.28768 555.89888a33.9456 33.9456 0 0 0-57.27232 14.99136 33.9456 33.9456 0 0 0 9.25696 33.024L419.0208 773.66272a33.75104 33.75104 0 0 0 24.00256 9.94304c8.04864 0 16.09728-2.85696 22.54848-8.59136l305.55136-271.60576a33.93536 33.93536 0 0 0-45.08672-50.7392z m0 0M884.38784 104.59136h-746.9056c-56.17664 0-101.85728 45.68064-101.85728 101.85728v135.80288c0 44.2368 28.39552 81.88928 67.90144 95.90784V817.5616c0 56.1664 45.68064 101.84704 101.85728 101.84704h611.11296c56.1664 0 101.85728-45.6704 101.85728-101.84704V438.15936c39.4752-14.0288 67.90144-51.65056 67.90144-95.90784V206.44864c-0.02048-56.17664-45.70112-101.85728-101.86752-101.85728z m33.9456 237.66016a33.97632 33.97632 0 0 1-33.95584 33.95584 33.95584 33.95584 0 0 0-33.95584 33.9456V817.5616a33.9456 33.9456 0 0 1-33.9456 33.9456H205.37344a33.97632 33.97632 0 0 1-33.95584-33.9456V444.1088h441.35424a33.95584 33.95584 0 1 0 0-67.90144H137.48224a33.98656 33.98656 0 0 1-33.95584-33.95584V206.44864a33.98656 33.98656 0 0 1 33.95584-33.95584h746.9056a33.97632 33.97632 0 0 1 33.95584 33.95584v135.80288z m0 0" /></svg>