<?xml version="1.0" standalone="no"?><!DOCTYPE svg PUBLIC "-//W3C//DTD SVG 1.1//EN" "http://www.w3.org/Graphics/SVG/1.1/DTD/svg11.dtd"><svg class="icon" width="200px" height="200.00px" viewBox="0 0 1024 1024" version="1.1" xmlns="http://www.w3.org/2000/svg"><path   d="M256 288h64v64h-64z m128 384h384v64H384zM256 480h64v64h-64z m0 192h64v64h-64z"  /><path   d="M832 64H192c-35.2 0-64 28.8-64 64v768c0 35.2 28.8 64 64 64h640c35.2 0 64-28.8 64-64V128c0-35.2-28.8-64-64-64z m0 800c0 19.2-16 32-32 32H224c-16 0-32-12.8-32-32V160c0-19.2 16-32 32-32h576c16 0 32 12.8 32 32v704z"  /><path   d="M384 480h384v64H384z m0-192h384v64H384z"  /></svg>