<?xml version="1.0" standalone="no"?><!DOCTYPE svg PUBLIC "-//W3C//DTD SVG 1.1//EN" "http://www.w3.org/Graphics/SVG/1.1/DTD/svg11.dtd"><svg class="icon" width="200px" height="200.00px" viewBox="0 0 1024 1024" version="1.1" xmlns="http://www.w3.org/2000/svg"><path   d="M910.4 803.2h-107.2-1.6c-14.4 0-25.6-11.2-25.6-25.6 0-8 3.2-16 9.6-19.2 32-19.2 52.8-52.8 52.8-92.8 0-59.2-48-108.8-108.8-108.8-59.2 0-108.8 48-108.8 108.8 0 40 20.8 73.6 52.8 92.8 6.4 4.8 9.6 12.8 9.6 20.8 0 12.8-9.6 24-20.8 25.6h-113.6c-11.2 0-20.8 9.6-20.8 20.8v60.8c0 11.2 9.6 20.8 20.8 20.8h358.4c11.2 0 20.8-9.6 20.8-20.8v-60.8c1.6-12.8-6.4-22.4-17.6-22.4zM393.6 585.6v67.2h-48v-321.6c-4.8 22.4-12.8 43.2-19.2 65.6v257.6h-49.6v-161.6c-3.2 4.8-8 9.6-11.2 14.4-3.2-12.8-16-43.2-24-56 27.2-32 46.4-81.6 57.6-132.8l48 11.2h104v129.6h-57.6v20.8h52.8v41.6h-52.8v22.4h57.6v41.6h-57.6z m0-214.4v46.4h12.8v-46.4h-12.8z m177.6 105.6c-6.4 44.8-19.2 78.4-38.4 107.2 14.4 14.4 32 25.6 52.8 33.6-9.6 9.6-22.4 27.2-28.8 38.4-20.8-9.6-38.4-22.4-52.8-36.8-17.6 16-38.4 28.8-60.8 38.4-4.8-11.2-16-28.8-25.6-38.4 24-8 43.2-19.2 59.2-36.8-11.2-19.2-19.2-41.6-27.2-65.6l24-4.8h-24v-41.6h83.2l8-1.6 30.4 8z m-6.4-19.2h-105.6v-43.2h59.2v-41.6h-59.2v-43.2h105.6v128z m-75.2 54.4c3.2 11.2 8 22.4 14.4 33.6 4.8-9.6 9.6-22.4 14.4-33.6h-28.8z"  /><path   d="M446.4 846.4h-280c-9.6 0-16-8-16-16v-569.6h169.6c17.6 0 32-14.4 32-32v-140.8h408c9.6 0 16 6.4 16 16v379.2c0 16 12.8 28.8 28.8 28.8s28.8-12.8 28.8-28.8V64c0-17.6-14.4-33.6-33.6-33.6h-502.4l-204.8 204.8v635.2c0 17.6 14.4 33.6 33.6 33.6h318.4c16 0 28.8-12.8 28.8-28.8 1.6-16-11.2-28.8-27.2-28.8z"  /></svg>