<?xml version="1.0" standalone="no"?><!DOCTYPE svg PUBLIC "-//W3C//DTD SVG 1.1//EN" "http://www.w3.org/Graphics/SVG/1.1/DTD/svg11.dtd"><svg class="icon" width="200px" height="200.00px" viewBox="0 0 1024 1024" version="1.1" xmlns="http://www.w3.org/2000/svg"><path d="M863.4368 79.4624h-165.2736v72.448h165.2736a36.3008 36.3008 0 0 1 36.1984 36.1984v724.0192a36.3008 36.3008 0 0 1-36.1984 36.1984H170.8032a34.2016 34.2016 0 0 1-36.1984-36.1984V188.1088a34.2016 34.2016 0 0 1 36.1984-36.1984h165.3248V79.4624H170.8032a106.7008 106.7008 0 0 0-108.5952 108.6464v724.0192a106.7008 106.7008 0 0 0 108.5952 108.5952h692.6336a106.6496 106.6496 0 0 0 108.5952-108.5952V188.1088a108.9024 108.9024 0 0 0-108.5952-108.6464" fill="#666666" /><path d="M263.5776 332.8h506.88v72.5504h-506.88z m0 217.344h506.88v72.2944h-506.88z m0 181.0432H552.96V803.84H263.5776z m398.2336-506.88H372.3776a34.2016 34.2016 0 0 1-36.1984-36.1984V43.264a34.2016 34.2016 0 0 1 36.1984-36.1984h289.6384a34.2016 34.2016 0 0 1 36.1984 36.1984v144.8448a34.2016 34.2016 0 0 1-36.1984 36.1984zM408.576 151.9104h217.2416V79.4624H408.576z m354.816 543.0784l-68.8128 108.5952-39.8336-57.9584h-65.1776l72.3968 105.0112c10.8544 18.0736 32.5632 21.76 50.688 7.2192l10.8544-10.8544 101.376-155.648h-61.44z m0 0" fill="#999999" /></svg>