<?xml version="1.0" standalone="no"?><!DOCTYPE svg PUBLIC "-//W3C//DTD SVG 1.1//EN" "http://www.w3.org/Graphics/SVG/1.1/DTD/svg11.dtd"><svg class="icon" width="200px" height="150.04px" viewBox="0 0 1365 1024" version="1.1" xmlns="http://www.w3.org/2000/svg"><path  d="M1211.752107 86.183253H156.99456c-14.866773 0-26.92096 12.197547-26.92096 27.264v795.380054c0 15.085227 12.054187 27.281067 26.92096 27.281066h1054.757547c14.86848 0 26.92096-12.19584 26.92096-27.281066V113.447253c0-15.066453-12.05248-27.264-26.92096-27.264z m-132.512427 70.514347L686.8992 470.350507 288.71168 156.6976h790.528z m89.786027 681.652907c0 15.04768-12.054187 27.245227-26.92096 27.245226H226.64192c-14.90432 0-26.92096-12.19584-26.92096-27.245226v-654.3872c0-1.425067 0.180907-2.778453 0.395947-4.13184l487.538346 384.039253 480.935254-384.49152c0.25088 1.496747 0.433493 3.013973 0.433493 4.584107v654.3872z m0 0" /></svg>