<?xml version="1.0" standalone="no"?><!DOCTYPE svg PUBLIC "-//W3C//DTD SVG 1.1//EN" "http://www.w3.org/Graphics/SVG/1.1/DTD/svg11.dtd"><svg class="icon" width="200px" height="200.00px" viewBox="0 0 1024 1024" version="1.1" xmlns="http://www.w3.org/2000/svg"><path   d="M803.362 0h-584.67C138.308 0 72.533 65.775 72.533 146.159v730.829c0 80.384 65.775 146.159 146.16 146.159h584.67c80.383 0 146.158-65.775 146.158-146.16V146.16C949.521 65.775 883.746 0 803.362 0zM255.25 146.159h219.238c21.914 0 36.557 14.609 36.557 36.557 0 21.913-14.609 36.557-36.557 36.557H255.25c-21.914 0-36.557-14.61-36.557-36.557 0-21.948 14.61-36.557 36.557-36.557z m511.556 730.829H255.25c-21.914 0-36.557-14.61-36.557-36.557s14.61-36.557 36.557-36.557h511.59c21.914 0 36.557 14.61 36.557 36.557s-14.643 36.557-36.59 36.557z m0-219.239H255.25c-21.914 0-36.557-14.609-36.557-36.556 0-21.914 14.61-36.557 36.557-36.557h511.59c21.914 0 36.557 14.609 36.557 36.557-0.034 21.913-14.643 36.556-36.59 36.556z m0-219.272H255.25c-21.914 0-36.557-14.61-36.557-36.557 0-21.914 14.61-36.557 36.557-36.557h511.59c21.914 0 36.557 14.61 36.557 36.557-0.034 21.948-14.643 36.557-36.59 36.557z" /></svg>