<?xml version="1.0" standalone="no"?><!DOCTYPE svg PUBLIC "-//W3C//DTD SVG 1.1//EN" "http://www.w3.org/Graphics/SVG/1.1/DTD/svg11.dtd"><svg class="icon" width="200px" height="55.96px" viewBox="0 0 3660 1024" version="1.1" xmlns="http://www.w3.org/2000/svg"><path   d="M1997.02047614 188.543321c-34.248852-112.025901-137.639869-188.543321-254.787663-188.543321-117.13878 0-220.538811 76.51742-254.778649 188.543321C1453.21207214 300.560209 1496.15664914 421.811375 1593.27205214 487.307601 1429.73654514 549.205207 1321.41742414 705.662904 1321.03885914 880.519303c0 20.050417 16.258008 36.299412 36.308425 36.299412s36.299412-16.248995 36.299412-36.299412a347.887575 347.887575 0 0 1 102.061534-245.968003A347.869548 347.869548 0 0 1 1741.80016814 532.798477l0.890078 0.036053a348.076858 348.076858 0 0 1 164.574308 41.369477 453.311125 453.311125 0 0 1 62.318984-47.302579 421.020445 421.020445 0 0 0-78.383203-39.591574c97.115404-65.498479 140.05998-186.749645 105.820141-298.766533zM1742.65419214 460.240214h-0.854024c-107.140612-0.236603-193.798162-87.272718-193.568319-194.41333 0.236603-107.140612 87.281731-193.798162 194.422343-193.568319 107.131599 0 193.991951 86.851339 193.991951 193.989698 0 107.140612-86.860352 193.991951-193.991951 193.991951zM2350.74426014 671.556014a29.884089 29.884089 0 0 0-24.302512-20.359128l-155.896609-22.657557-69.739307-141.308343c-10.043235-20.465035-43.534958-20.465035-53.666074 0l-69.730293 141.29257-155.905623 22.675584a29.920143 29.920143 0 0 0-16.618546 51.115268l112.792044 109.975341-26.60094 155.288202a29.92465 29.92465 0 1 0 43.438063 31.547071l139.453825-73.322152 139.426786 73.322152c10.088303 5.360749 22.348846 4.506724 31.598898-2.201535a29.933663 29.933663 0 0 0 11.918033-29.345536l-26.679809-155.288202 112.825845-109.975341a29.886343 29.886343 0 0 0 7.686219-30.758394z m-173.578743 108.873447a29.92465 29.92465 0 0 0-8.583057 26.48602L2187.60534414 917.954409l-99.684237-52.408698a29.805222 29.805222 0 0 0-27.849303 0l-99.702264 52.408698 19.038657-111.038928a29.863809 29.863809 0 0 0-8.583056-26.458979l-80.681633-78.613047 111.43552-16.203928a29.839022 29.839022 0 0 0 22.569676-16.415743l49.873665-101.092588 49.864652 101.092588a29.929157 29.929157 0 0 0 22.488555 16.388703l111.426507 16.212941-80.636566 78.604033z" /></svg>