<?xml version="1.0" standalone="no"?><!DOCTYPE svg PUBLIC "-//W3C//DTD SVG 1.1//EN" "http://www.w3.org/Graphics/SVG/1.1/DTD/svg11.dtd"><svg class="icon" width="200px" height="200.00px" viewBox="0 0 1024 1024" version="1.1" xmlns="http://www.w3.org/2000/svg"><path d="M182.056421 870.103579a32.336842 32.336842 0 0 1-34.088421-34.088421V174.861474a100.432842 100.432842 0 0 1 102.265263-102.265263h518.144a100.432842 100.432842 0 0 1 102.265263 102.265263v569.128421a34.088421 34.088421 0 0 1-68.176842 0V174.861474a32.336842 32.336842 0 0 0-34.088421-34.088421H250.233263a32.336842 32.336842 0 0 0-34.088421 34.088421V836.176842a34.169263 34.169263 0 0 1-34.088421 33.926737z" fill="#208BB5" /><path d="M686.538105 348.564211H342.258526a34.088421 34.088421 0 1 1 0-68.176843h344.279579a32.336842 32.336842 0 0 1 34.088421 34.088421 34.169263 34.169263 0 0 1-34.088421 34.088422zM686.538105 484.917895H342.258526a34.088421 34.088421 0 1 1 0-68.176842h344.279579a32.336842 32.336842 0 0 1 34.088421 34.088421 34.169263 34.169263 0 0 1-34.088421 34.088421zM686.538105 621.271579H342.258526a34.088421 34.088421 0 1 1 0-68.176842h344.279579a32.336842 32.336842 0 0 1 34.088421 34.088421 34.169263 34.169263 0 0 1-34.088421 34.088421z" fill="#83D2EA" /><path d="M836.554105 975.791158H280.926316a133.12 133.12 0 0 1-132.931369-132.931369 130.991158 130.991158 0 0 1 132.931369-132.931368h555.627789a34.088421 34.088421 0 1 1 0 68.176842H280.926316a64.673684 64.673684 0 0 0-64.673684 64.673684 62.679579 62.679579 0 0 0 64.673684 64.673685h555.627789a32.336842 32.336842 0 0 1 34.088421 34.088421 34.169263 34.169263 0 0 1-34.088421 34.250105z" fill="#208BB5" /></svg>