<?xml version="1.0" standalone="no"?><!DOCTYPE svg PUBLIC "-//W3C//DTD SVG 1.1//EN" "http://www.w3.org/Graphics/SVG/1.1/DTD/svg11.dtd"><svg class="icon" width="200px" height="179.65px" viewBox="0 0 1140 1024" version="1.1" xmlns="http://www.w3.org/2000/svg"><path   d="M944.108681 136.572043h-65.150258v65.150259h65.150258a130.952019 130.952019 0 1 1 0 261.904038v-65.150258l-97.725387 97.725388 97.725387 97.725387v-65.150258a196.428029 196.428029 0 0 0 0-392.77462z"  /><path   d="M846.057543 168.821421a32.575129 32.575129 0 1 0 32.575129-32.575129 32.575129 32.575129 0 0 0-32.575129 32.575129zM0 690.512115a196.265153 196.265153 0 0 0 196.102278 196.102278v65.150258l97.725387-97.725387-97.725387-97.725388v65.150258a130.952019 130.952019 0 1 1 0-261.904038h65.150258v-65.150259h-65.150258A197.323845 197.323845 0 0 0 0 690.512115z"  /><path   d="M229.003158 526.659215a32.575129 32.575129 0 1 0 32.575129-32.575129 32.575129 32.575129 0 0 0-32.575129 32.575129z m443.836135-233.645114H476.085513a146.588081 146.588081 0 1 1 0-292.768973h196.75378a146.588081 146.588081 0 1 1 0 292.768973zM476.737015 67.431332a79.239002 79.239002 0 0 0 0 158.478003H673.490796a79.239002 79.239002 0 0 0 0-158.478003z m196.102278 586.352325H476.085513a146.588081 146.588081 0 1 1 0-292.768974h196.75378a146.588081 146.588081 0 1 1 0 292.768974z m-196.102278-225.58277a79.239002 79.239002 0 0 0 0 158.478004H673.490796a79.239002 79.239002 0 0 0 0-158.478004z m196.102278 594.903297H476.085513a146.588081 146.588081 0 1 1 0-292.768974h196.75378a146.588081 146.588081 0 1 1 0 292.768974zM476.737015 797.521414a79.239002 79.239002 0 0 0 0 158.478004H673.490796a79.239002 79.239002 0 0 0 0-158.478004z"  /></svg>