<?xml version="1.0" standalone="no"?><!DOCTYPE svg PUBLIC "-//W3C//DTD SVG 1.1//EN" "http://www.w3.org/Graphics/SVG/1.1/DTD/svg11.dtd"><svg class="icon" width="200px" height="200.00px" viewBox="0 0 1024 1024" version="1.1" xmlns="http://www.w3.org/2000/svg"><path   d="M241.792 776.576c16.192 0 32.384-7.936 48.512-15.808h8.064L136.768 602.368v7.936c-8.128 15.872-16.192 31.68-16.192 47.488L64 832l177.792-55.424z m565.76-633.408l-48.448-55.424c-32.32-31.68-72.768-31.68-105.088 0l-48.512 55.424 153.6 150.4 48.512-47.488c32.32-31.616 32.32-79.168 0-102.912zM710.656 341.12l-153.6-150.4-363.648 356.224 153.6 150.4 363.648-356.224z"  /><path   d="M64 896m32 0l832 0q32 0 32 32l0 0q0 32-32 32l-832 0q-32 0-32-32l0 0q0-32 32-32Z"  /></svg>