<?xml version="1.0" standalone="no"?><!DOCTYPE svg PUBLIC "-//W3C//DTD SVG 1.1//EN" "http://www.w3.org/Graphics/SVG/1.1/DTD/svg11.dtd"><svg class="icon" width="200px" height="200.00px" viewBox="0 0 1024 1024" version="1.1" xmlns="http://www.w3.org/2000/svg"><path   d="M686.272 739.2c-61.312 61.44-122.56 122.88-183.872 184.192a22.656 22.656 0 0 1-32.064 0s-96.384-96.448-183.872-184.192C135.68 763.52 32 814.72 32 873.92 32 956.864 235.392 1024 486.4 1024c250.88 0 454.336-67.2 454.336-150.08 0-59.072-103.808-110.336-254.464-134.72"  /><path   d="M486.464 180.48c78.592 0 142.272 63.872 142.272 142.592 0 78.72-63.744 142.592-142.272 142.592A142.464 142.464 0 0 1 344.128 323.072a142.4 142.4 0 0 1 142.336-142.528m-11.968 607.872c6.528 6.528 17.28 6.528 23.808 0 0 0 239.04-239.68 239.616-240.64a330.688 330.688 0 0 0 79.616-215.808A331.456 331.456 0 0 0 486.4 0.192 331.456 331.456 0 0 0 155.2 331.968c0 82.432 30.08 157.76 79.616 215.808 0.704 0.96 239.68 240.64 239.68 240.64"  /></svg>