<?xml version="1.0" standalone="no"?><!DOCTYPE svg PUBLIC "-//W3C//DTD SVG 1.1//EN" "http://www.w3.org/Graphics/SVG/1.1/DTD/svg11.dtd"><svg class="icon" width="200px" height="200.00px" viewBox="0 0 1024 1024" version="1.1" xmlns="http://www.w3.org/2000/svg"><path   d="M763.472842 438.864842H260.527158c-21.557895 0-35.947789-14.659368-35.94779-36.648421 0-21.881263 14.336-36.540632 35.94779-36.540632h502.999579c21.557895 0 35.947789 14.605474 35.947789 36.594527 0 21.935158-14.389895 36.594526-36.001684 36.594526m0 219.405474H260.527158c-21.557895 0-35.947789-14.551579-35.94779-36.540632 0-21.935158 14.336-36.648421 35.94779-36.648421h502.999579c21.557895 0 35.947789 14.659368 35.947789 36.648421 0 21.935158-14.389895 36.540632-36.001684 36.540632m0 219.459368H260.527158c-21.557895 0-35.947789-14.659368-35.94779-36.648421 0-21.935158 14.336-36.540632 35.94779-36.540631h502.999579c21.557895 0 35.947789 14.605474 35.947789 36.594526 0 21.935158-14.389895 36.594526-36.001684 36.594526M260.527158 146.270316h215.578947c21.557895 0 35.893895 14.605474 35.893895 36.594526 0 21.935158-14.336 36.594526-35.947789 36.594526h-215.578948c-21.557895 0-35.893895-14.605474-35.893895-36.594526 0-21.989053 14.336-36.594526 35.94779-36.594526m538.947368-146.270316H224.525474C145.515789 0 80.842105 65.805474 80.842105 146.270316v731.459368C80.842105 958.194526 145.515789 1024 224.579368 1024h574.841264C878.484211 1024 943.157895 958.194526 943.157895 877.729684V146.270316C943.157895 65.805474 878.484211 0 799.420632 0"  /></svg>