<?xml version="1.0" standalone="no"?><!DOCTYPE svg PUBLIC "-//W3C//DTD SVG 1.1//EN" "http://www.w3.org/Graphics/SVG/1.1/DTD/svg11.dtd"><svg class="icon" width="200px" height="200.00px" viewBox="0 0 1024 1024" version="1.1" xmlns="http://www.w3.org/2000/svg"><path   d="M931.745831 219.899574a34.115417 34.115417 0 0 0-55.994044 38.854336A443.500425 443.500425 0 1 1 385.298164 87.21984a34.159417 34.159417 0 0 0-19.497667-65.463882A511.73126 511.73126 0 1 0 931.752831 219.899574z m0 0"  /><path   d="M638.397841 87.21984a439.362496 439.362496 0 0 1 146.3625 76.70869 34.159417 34.159417 0 1 0 42.369277-53.599084 510.411282 510.411282 0 0 0-170.577087-88.699485 34.204416 34.204416 0 0 0-19.370669 65.589879h1.252978zM487.666416 58.986323a38.105349 38.105349 0 0 0 11.250807 7.119878 32.149451 32.149451 0 0 0 25.876558 0 39.062333 39.062333 0 0 0 11.249808-7.119878 33.885421 33.885421 0 0 0 9.863832-24.259586 35.991385 35.991385 0 0 0-9.870832-24.236586A34.300414 34.300414 0 0 0 504.910121 0.61132a25.134571 25.134571 0 0 0-6.125895 2.002965 23.635596 23.635596 0 0 0-6.125896 3.121947l-5.124912 4.12393a34.359413 34.359413 0 0 0-7.126878 11.242808 33.922421 33.922421 0 0 0 0 26.609545 41.227296 41.227296 0 0 0 7.245876 11.243808zM511.763004 244.789149q37.081367 0 37.081367 37.081367v333.738299q0 37.082367-37.081367 37.082367-37.082367 0-37.082367-37.082367V281.870516q0-37.081367 37.082367-37.081367zM511.763004 697.189422q44.49824 0 44.49824 44.49824 0 44.49924-44.49924 44.49924-44.49724 0-44.49724-44.49924t44.49824-44.49924z"  /></svg>