<?xml version="1.0" standalone="no"?><!DOCTYPE svg PUBLIC "-//W3C//DTD SVG 1.1//EN" "http://www.w3.org/Graphics/SVG/1.1/DTD/svg11.dtd"><svg class="icon" width="200px" height="200.00px" viewBox="0 0 1024 1024" version="1.1" xmlns="http://www.w3.org/2000/svg"><path   d="M 231.7 764 c 0 17.7 14.3 32 32 32 h 496.7 c 17.7 0 32 -14.3 32 -32 s -14.3 -32 -32 -32 H 263.7 c -17.7 0 -32 14.3 -32 32 Z M 480.3 604 H 263.7 c -17.7 0 -32 14.3 -32 32 s 14.3 32 32 32 h 216.6 c 17.7 0 32 -14.3 32 -32 s -14.3 -32 -32 -32 Z"  /><path   d="M 864 895.9 l -0.1 0.1 H 162.1 l -0.1 -0.1 V 128.1 l 0.1 -0.1 h 504.6 l 64 -64 H 162 c -35.2 0 -64 28.8 -64 64 v 768 c 0 35.2 28.8 64 64 64 h 702 c 35.2 0 64 -28.8 64 -64 V 326.6 l -64 64 v 505.3 Z"  /><path   d="M 950.6 176.7 L 846.9 73.1 c -12.5 -12.5 -32.8 -12.5 -45.3 0 L 644.8 230 l -42.3 -42.3 c -8.9 -8.9 -22.3 -11.8 -34.1 -7.2 c -11.8 4.5 -19.8 15.6 -20.5 28.2 l -11.8 233 c -0.5 9 2.9 17.8 9.3 24.2 c 6 6 14.2 9.4 22.6 9.4 h 1.6 l 233 -11.8 c 12.6 -0.6 23.7 -8.7 28.2 -20.5 s 1.7 -25.2 -7.2 -34.1 l -30 -30 l 157 -156.9 c 6 -6 9.4 -14.1 9.4 -22.6 s -3.4 -16.7 -9.4 -22.7 Z M 725.8 356.3 c -6 6 -9.4 14.1 -9.4 22.6 c 0 8.5 3.4 16.6 9.4 22.6 l 1.7 1.7 l -125.7 6.4 l 6.4 -125.7 l 14 14 c 6 6 14.1 9.4 22.6 9.4 s 16.6 -3.4 22.6 -9.4 L 824.3 141 l 58.4 58.4 l -156.9 156.9 Z"  /></svg>