<?xml version="1.0" standalone="no"?><!DOCTYPE svg PUBLIC "-//W3C//DTD SVG 1.1//EN" "http://www.w3.org/Graphics/SVG/1.1/DTD/svg11.dtd"><svg class="icon" width="200px" height="200.00px" viewBox="0 0 1024 1024" version="1.1" xmlns="http://www.w3.org/2000/svg"><path d="M0 0m341.333333 0l341.333334 0q341.333333 0 341.333333 341.333333l0 341.333334q0 341.333333-341.333333 341.333333l-341.333334 0q-341.333333 0-341.333333-341.333333l0-341.333334q0-341.333333 341.333333-341.333333Z" fill="#2C64FF" /><path d="M661.333333 469.333333h-298.666666c-12.8 0-21.333333-8.533333-21.333334-21.333333s8.533333-21.333333 21.333334-21.333333h298.666666c12.8 0 21.333333 8.533333 21.333334 21.333333s-8.533333 21.333333-21.333334 21.333333m0 128h-298.666666c-12.8 0-21.333333-8.533333-21.333334-21.333333s8.533333-21.333333 21.333334-21.333333h298.666666c12.8 0 21.333333 8.533333 21.333334 21.333333s-8.533333 21.333333-21.333334 21.333333m0 128h-298.666666c-12.8 0-21.333333-8.533333-21.333334-21.333333s8.533333-21.333333 21.333334-21.333333h298.666666c12.8 0 21.333333 8.533333 21.333334 21.333333s-8.533333 21.333333-21.333334 21.333333m-298.666666-426.666666h128c12.8 0 21.333333 8.533333 21.333333 21.333333s-8.533333 21.333333-21.333333 21.333333h-128c-12.8 0-21.333333-8.533333-21.333334-21.333333s8.533333-21.333333 21.333334-21.333333M682.666667 213.333333H341.333333C294.4 213.333333 256 251.733333 256 298.666667v426.666666c0 46.933333 38.4 85.333333 85.333333 85.333334h341.333334c46.933333 0 85.333333-38.4 85.333333-85.333334V298.666667c0-46.933333-38.4-85.333333-85.333333-85.333334" fill="#FFFFFF" /></svg>