<?xml version="1.0" standalone="no"?><!DOCTYPE svg PUBLIC "-//W3C//DTD SVG 1.1//EN" "http://www.w3.org/Graphics/SVG/1.1/DTD/svg11.dtd"><svg class="icon" width="200px" height="200.00px" viewBox="0 0 1024 1024" version="1.1" xmlns="http://www.w3.org/2000/svg"><path   d="M13.963636 609.745455c37.236364 200.145455 195.490909 363.054545 400.290909 400.290909 148.945455 27.927273 302.545455-9.309091 414.254546-107.054546 116.363636-97.745455 181.527273-237.381818 181.527273-386.327273h-74.472728c0 116.363636-46.545455 223.418182-130.327272 302.545455-83.781818 79.127273-195.490909 125.672727-311.854546 121.018182-223.418182-4.654545-409.6-190.836364-414.254545-414.254546-4.654545-116.363636 41.890909-228.072727 121.018182-311.854545C279.272727 130.327273 390.981818 83.781818 507.345455 83.781818s228.072727 46.545455 307.2 130.327273l4.654545 4.654545h-158.254545v74.472728h251.345454c9.309091 0 18.618182-9.309091 18.618182-18.618182V9.309091h-74.472727v144.290909l-4.654546-4.654545c-93.090909-88.436364-218.763636-139.636364-344.436363-139.636364-148.945455 0-288.581818 65.163636-386.327273 181.527273C23.272727 307.2-13.963636 456.145455 13.963636 609.745455z"  /></svg>