<?xml version="1.0" standalone="no"?><!DOCTYPE svg PUBLIC "-//W3C//DTD SVG 1.1//EN" "http://www.w3.org/Graphics/SVG/1.1/DTD/svg11.dtd"><svg class="icon" width="200px" height="200.00px" viewBox="0 0 1024 1024" version="1.1" xmlns="http://www.w3.org/2000/svg"><path d="M486.40256 0.307169a255.257674 255.257674 0 1 1-0.051195 510.515349A255.257674 255.257674 0 0 1 486.40256 0.307169" fill="#231916" /><path d="M405.463454 597.49545h211.998c181.485851 0 328.619938 147.953205 328.619938 330.565344v21.29707c0 71.928807-147.134087 74.642136-328.619938 74.642136H405.514649C223.977602 1024 76.843516 1023.89761 76.843516 949.357864v-21.29707c0-182.560944 147.134087-330.565343 328.619938-330.565344M500.890711 0.307169c140.529947 0 254.438556 114.574143 254.438556 255.923208 0 141.29787-114.010999 255.923208-254.438556 255.923208s-254.438556-114.574143-254.438556-255.923208c0-141.29787 113.908609-255.974403 254.438556-255.974403" fill="#2C64FF" /></svg>