<?xml version="1.0" standalone="no"?><!DOCTYPE svg PUBLIC "-//W3C//DTD SVG 1.1//EN" "http://www.w3.org/Graphics/SVG/1.1/DTD/svg11.dtd"><svg class="icon" width="200px" height="180.92px" viewBox="0 0 1132 1024" version="1.1" xmlns="http://www.w3.org/2000/svg"><path   d="M472.988628 1024l-124.603488-104.418499a35.064948 35.064948 0 0 1-4.269901-49.427344 40.434673 40.434673 0 0 1 56.996715-4.916856l62.689916 52.532727 73.429366-87.468284h481.722517a37.782158 37.782158 0 0 0 37.782158-37.782158v-679.302502a37.782158 37.782158 0 0 0-37.782158-37.782159h-905.736669a37.782158 37.782158 0 0 0-37.782159 37.782159v679.302502a37.782158 37.782158 0 0 0 37.782159 37.782158h77.634571a40.369977 40.369977 0 0 1 40.434673 40.434672 35.000253 35.000253 0 0 1-35.000253 35.000253H113.217084A113.217084 113.217084 0 0 1 0 792.519586v-679.302502A113.217084 113.217084 0 0 1 113.217084 0h905.736669A113.217084 113.217084 0 0 1 1132.170836 113.217084v679.302502a113.217084 113.217084 0 0 1-113.217083 113.217083h-446.398787l-99.566338 118.263331z"  /><path   d="M229.668941 448.79252A60.684357 60.684357 0 1 0 290.353298 388.172858a60.619661 60.619661 0 0 0-60.684357 60.619662zM505.077584 448.79252A60.619661 60.619661 0 1 0 565.761941 388.172858a60.619661 60.619661 0 0 0-60.684357 60.619662zM781.262573 448.79252a60.684357 60.684357 0 1 0 60.684356-60.619662 60.684357 60.684357 0 0 0-60.684356 60.619662z"  /></svg>