<?xml version="1.0" standalone="no"?><!DOCTYPE svg PUBLIC "-//W3C//DTD SVG 1.1//EN" "http://www.w3.org/Graphics/SVG/1.1/DTD/svg11.dtd"><svg class="icon" width="200px" height="200.00px" viewBox="0 0 1024 1024" version="1.1" xmlns="http://www.w3.org/2000/svg"><path   d="M914.285714 146.67581a36.668952 36.668952 0 0 1-36.668952-36.571429 36.668952 36.668952 0 0 1 73.289143 0c0 20.138667-16.432762 36.571429-36.620191 36.571429M109.519238 948.126476a36.668952 36.668952 0 0 1-36.668952-36.571428 36.668952 36.668952 0 0 1 73.289143 0c0 20.138667-16.432762 36.571429-36.620191 36.571428M1024 110.104381a109.714286 109.714286 0 0 0-219.428571 0 109.714286 109.714286 0 0 0 72.801523 103.082667v679.887238c0 15.36-6.046476 29.842286-17.115428 40.813714a57.539048 57.539048 0 0 1-40.862476 17.066667h-13.019429c-15.408762 0-29.93981-6.046476-40.911238-17.066667a57.782857 57.782857 0 0 1-17.066667-40.813714l-0.585143-762.002286A131.31581 131.31581 0 0 0 616.69181 0.24381h-10.142477A131.31581 131.31581 0 0 0 475.428571 131.072l0.536381 758.930286c0 15.36-6.046476 29.842286-17.066666 40.764952a57.539048 57.539048 0 0 1-40.96 17.115429H406.186667c-15.408762 0-29.891048-6.046476-40.862477-17.066667a57.295238 57.295238 0 0 1-17.115428-40.813714l0.536381-759.222857A131.31581 131.31581 0 0 0 217.624381 0H204.8A131.31581 131.31581 0 0 0 73.630476 130.82819v677.10781A109.714286 109.714286 0 0 0 0 911.408762a109.714286 109.714286 0 0 0 219.428571 0 109.714286 109.714286 0 0 0-72.801523-103.131429V130.974476c0-15.408762 6.046476-29.891048 17.066666-40.813714a57.539048 57.539048 0 0 1 40.96-17.115429h12.873143c15.408762 0 29.891048 6.046476 40.862476 17.066667 11.068952 11.068952 17.115429 25.551238 17.115429 40.813714l-0.536381 759.222857a131.31581 131.31581 0 0 0 131.072 130.779429h11.849143a131.31581 131.31581 0 0 0 131.120762-130.82819L548.425143 131.169524c0-15.408762 6.046476-29.842286 17.115428-40.813714a57.539048 57.539048 0 0 1 40.862477-17.066667h10.191238c15.408762 0 29.891048 6.046476 40.862476 17.066667 11.068952 11.068952 17.16419 25.551238 17.16419 40.813714l0.536381 762.002286A131.31581 131.31581 0 0 0 806.229333 1024h12.921905a131.31581 131.31581 0 0 0 131.072-130.82819V213.577143A109.909333 109.909333 0 0 0 1024 110.104381"  /></svg>