<?xml version="1.0" standalone="no"?><!DOCTYPE svg PUBLIC "-//W3C//DTD SVG 1.1//EN" "http://www.w3.org/Graphics/SVG/1.1/DTD/svg11.dtd"><svg class="icon" width="200px" height="200.00px" viewBox="0 0 1024 1024" version="1.1" xmlns="http://www.w3.org/2000/svg"><path   d="M857.472 0H166.08A166.08 166.08 0 0 0 0 166.08v691.84A166.08 166.08 0 0 0 166.08 1024h691.84A166.08 166.08 0 0 0 1024 857.92V166.08A166.656 166.656 0 0 0 857.472 0z m83.072 166.08v133.312h-576v-216.32h492.928c45.888 0 83.072 37.12 83.072 83.008z m-774.4-83.008h115.392v216.32H83.072V166.08c0-45.824 37.12-83.008 83.008-83.008zM83.008 857.92v-475.52h198.464v558.528H166.08a83.072 83.072 0 0 1-83.008-83.008z m774.4 83.008H364.608V382.464h575.936v475.456c0 45.824-37.184 83.008-83.072 83.008z"  /></svg>