<?xml version="1.0" standalone="no"?><!DOCTYPE svg PUBLIC "-//W3C//DTD SVG 1.1//EN" "http://www.w3.org/Graphics/SVG/1.1/DTD/svg11.dtd"><svg class="icon" width="200px" height="200.00px" viewBox="0 0 1024 1024" version="1.1" xmlns="http://www.w3.org/2000/svg"><path   d="M498.883393 473.529493a73.239871 73.239871 0 0 0 0-103.415179 73.300101 73.300101 0 0 0-103.41518 0l-232.789556 232.669096a183.099677 183.099677 0 0 0 0 258.628293 183.099677 183.099677 0 0 0 258.628294 0l439.619915-439.680145A182.858756 182.858756 0 1 0 602.298572 163.223725l-12.889254 13.009714a54.990133 54.990133 0 0 1-77.576442 0 54.990133 54.990133 0 0 1 0-77.576442l12.889254-13.009714a292.899253 292.899253 0 0 1 413.781178 0 292.899253 292.899253 0 0 1 0 413.781178l-439.680145 439.619914a292.658332 292.658332 0 0 1-412.998186-0.722762 292.658332 292.658332 0 0 1-0.722762-412.937955l232.789556-232.789556a183.099677 183.099677 0 0 1 258.628294 0 183.099677 183.099677 0 0 1 0 258.568063l-219.840073 219.840073a54.990133 54.990133 0 0 1-77.696902 0 54.990133 54.990133 0 0 1 0-77.516212l219.900303-219.840073z"  /></svg>