<?xml version="1.0" standalone="no"?><!DOCTYPE svg PUBLIC "-//W3C//DTD SVG 1.1//EN" "http://www.w3.org/Graphics/SVG/1.1/DTD/svg11.dtd"><svg class="icon" width="200px" height="200.00px" viewBox="0 0 1024 1024" version="1.1" xmlns="http://www.w3.org/2000/svg"><path   d="M257.141498 320.148507l324.879252 0c15.954367 0 29.006637-13.053294 29.006637-29.006637l0-5.801123c0-15.954367-13.053294-29.007661-29.006637-29.007661l-324.879252 0c-15.954367 0-29.006637 13.053294-29.006637 29.007661l0 5.801123C228.134861 307.095213 241.188154 320.148507 257.141498 320.148507zM228.134861 419.062308c0 15.954367 13.053294 29.006637 29.006637 29.006637l324.879252 0c15.954367 0 29.006637-13.053294 29.006637-29.006637l0-5.801123c0-15.954367-13.053294-29.006637-29.006637-29.006637l-324.879252 0c-15.954367 0-29.006637 13.053294-29.006637 29.006637L228.134861 419.062308zM492.114091 914.555355c-6.752798-6.751774-13.063527-13.826913-18.952654-21.170159l-312.190255 0c-17.593703 0-31.907711-14.314007-31.907711-31.908734L129.063471 158.482501c0-17.593703 14.314007-31.907711 31.907711-31.907711L737.03015 126.57479c17.593703 0 31.907711 14.314007 31.907711 31.907711l0 339.049996c22.852474 9.304923 44.325531 21.965268 63.815421 37.72623L832.753281 158.482501c0-52.782134-42.940998-95.723132-95.723132-95.723132L160.972205 62.759369c-52.782134 0-95.723132 42.940998-95.723132 95.723132l0 702.994985c0 52.782134 42.940998 95.723132 95.723132 95.723132l387.471822 0C528.043395 945.809173 509.09074 931.532005 492.114091 914.555355zM837.062424 854.077959l-48.197722-48.197722c16.4783-25.102724 26.079982-55.104015 26.079982-87.310531 0-87.969541-71.567989-159.53753-159.538553-159.53753-87.969541 0-159.53753 71.567989-159.53753 159.53753 0 87.970564 71.567989 159.538553 159.53753 159.538553 32.734542 0 63.194274-9.915837 88.544639-26.89351l47.986921 47.986921c12.409634 12.409634 32.715099 12.409634 45.124733 0l0 0C849.472058 886.793058 849.472058 866.487593 837.062424 854.077959zM559.682999 718.569706c0-52.78111 42.942021-95.723132 95.723132-95.723132 52.782134 0 95.724155 42.942021 95.724155 95.723132 0 52.782134-42.942021 95.724155-95.724155 95.724155C602.62502 814.293861 559.682999 771.351839 559.682999 718.569706z" /></svg>