<?xml version="1.0" standalone="no"?><!DOCTYPE svg PUBLIC "-//W3C//DTD SVG 1.1//EN" "http://www.w3.org/Graphics/SVG/1.1/DTD/svg11.dtd"><svg class="icon" width="200px" height="200.00px" viewBox="0 0 1024 1024" version="1.1" xmlns="http://www.w3.org/2000/svg"><path   d="M491.042133 317.713067c0 11.537067-9.489067 20.957867-21.026133 20.957866h-83.968a21.026133 21.026133 0 0 1-21.026133-20.957866v-83.968c0-11.605333 9.489067-21.026133 21.026133-21.026134h83.968c11.605333 0 21.026133 9.489067 21.026133 21.026134v83.968z m0 236.270933c0 11.605333-9.489067 21.026133-21.026133 21.026133h-83.968a21.026133 21.026133 0 0 1-21.026133-21.026133v-83.968c0-11.605333 9.489067-21.026133 21.026133-21.026133h83.968c11.605333 0 21.026133 9.489067 21.026133 21.026133v83.968z m0 236.270933c0 11.605333-9.489067 21.026133-21.026133 21.026134h-83.968a21.026133 21.026133 0 0 1-21.026133-21.026134v-83.968c0-11.537067 9.489067-20.957867 21.026133-20.957866h83.968c11.605333 0 21.026133 9.4208 21.026133 20.957866v83.968zM275.729067 317.713067c0 11.537067-9.489067 20.957867-21.026134 20.957866h-83.968a21.026133 21.026133 0 0 1-20.957866-20.957866v-83.968c0-11.605333 9.4208-21.026133 20.957866-21.026134h83.968c11.605333 0 21.026133 9.489067 21.026134 21.026134v83.968z m0 236.270933c0 11.605333-9.489067 21.026133-21.026134 21.026133h-83.968a21.026133 21.026133 0 0 1-20.957866-21.026133v-83.968c0-11.605333 9.4208-21.026133 20.957866-21.026133h83.968c11.605333 0 21.026133 9.489067 21.026134 21.026133v83.968z m0 236.270933c0 11.605333-9.489067 21.026133-21.026134 21.026134h-83.968a21.026133 21.026133 0 0 1-20.957866-21.026134v-83.968c0-11.537067 9.4208-20.957867 20.957866-20.957866h83.968c11.605333 0 21.026133 9.4208 21.026134 20.957866v83.968z m664.302933-406.869333H640.6144V83.968C640.6144 37.546667 602.999467 0 556.6464 0H83.968C37.546667 0 0 37.6832 0 83.968v856.064C0 986.453333 37.6832 1024 83.968 1024h472.610133c15.223467 0 29.627733-4.164267 41.984-11.332267 12.288 7.168 26.624 11.332267 41.984 11.332267h299.485867c46.421333 0 83.968-37.6832 83.968-83.968V467.3536c0-46.421333-37.6832-83.968-83.968-83.968z"  /></svg>