<?xml version="1.0" standalone="no"?><!DOCTYPE svg PUBLIC "-//W3C//DTD SVG 1.1//EN" "http://www.w3.org/Graphics/SVG/1.1/DTD/svg11.dtd"><svg class="icon" width="200px" height="200.00px" viewBox="0 0 1024 1024" version="1.1" xmlns="http://www.w3.org/2000/svg"><path   d="M512 481.28c-105.813333 0-191.146667 85.333333-191.146667 191.146667s85.333333 191.146667 191.146667 191.146666 191.146667-85.333333 191.146667-191.146666-85.333333-191.146667-191.146667-191.146667z m23.893333 324.266667c-6.826667 6.826667-13.653333 10.24-23.893333 10.24s-17.066667-3.413333-23.893333-10.24c-6.826667-6.826667-6.826667-13.653333-6.826667-23.893334 0-10.24 3.413333-17.066667 10.24-23.893333 6.826667-6.826667 13.653333-10.24 23.893333-10.24 6.826667 0 17.066667 3.413333 23.893334 10.24v3.413333c3.413333 6.826667 6.826667 13.653333 6.826666 20.48-3.413333 6.826667-6.826667 17.066667-10.24 23.893334z m6.826667-109.226667c-6.826667 40.96-61.44 40.96-64.853333 0l-13.653334-126.293333c-6.826667-47.786667 102.4-47.786667 98.986667 0l-20.48 126.293333z"  /><path   d="M928.426667 0H98.986667C47.786667 0 13.653333 30.72 13.653333 71.68v877.226667c0 44.373333 34.133333 71.68 81.92 71.68h829.44c51.2 0 81.92-30.72 81.92-71.68V71.68c6.826667-34.133333-37.546667-71.68-78.506666-71.68z m0 914.773333c0 20.48-17.066667 37.546667-40.96 37.546667H139.946667c-23.893333 0-40.96-13.653333-40.96-37.546667V109.226667c0-20.48 17.066667-37.546667 40.96-37.546667H887.466667c23.893333 0 40.96 13.653333 40.96 37.546667v805.546666z"  /><path   d="M737.28 157.013333H286.72c-34.133333 0-61.44 13.653333-61.44 34.133334s23.893333 37.546667 61.44 37.546666h447.146667c37.546667 0 61.44-13.653333 61.44-37.546666s-23.893333-34.133333-58.026667-34.133334z m0 143.36H286.72c-37.546667 0-61.44 13.653333-61.44 37.546667 0 20.48 23.893333 37.546667 61.44 37.546667h447.146667c37.546667 0 61.44-13.653333 61.44-37.546667 3.413333-23.893333-23.893333-37.546667-58.026667-37.546667z"  /></svg>