<?xml version="1.0" standalone="no"?><!DOCTYPE svg PUBLIC "-//W3C//DTD SVG 1.1//EN" "http://www.w3.org/Graphics/SVG/1.1/DTD/svg11.dtd"><svg class="icon" width="200px" height="200.00px" viewBox="0 0 1024 1024" version="1.1" xmlns="http://www.w3.org/2000/svg"><path   d="M892.87866 172.854836c-22.092158-21.546735-46.166459-36.82265-72.325235-45.857421-26.049283-8.966209-52.583612-12.549827-79.568197-10.758018-26.978445 1.791809-53.512774 8.850575-79.564104 21.10262-26.084075 12.243859-50.117444 29.16525-72.213695 50.709939L332.566328 437.667038c-0.596588 0.596588-4.107551 3.88447-10.562567 9.857509-6.457062 5.973038-13.361309 12.881378-20.711717 20.652366-8.584516 8.960069-18.401092 18.818601-29.446659 29.611411-22.055318 20.952194-36.945447 41.602513-44.595684 61.95505-7.689123 20.355607-10.896164 39.513946-9.66615 57.476039 1.232061 17.96107 5.972015 34.391275 14.254655 49.370431 8.287757 14.975063 17.654079 27.257807 28.066219 36.820604 12.876262 11.985986 26.982538 22.182208 42.320874 30.547737 15.33629 8.365528 31.907711 12.992919 49.671283 13.891382 17.763572 0.935302 36.795021-2.839675 57.023738-11.203156 20.265556-8.363482 41.387619-23.338544 63.479777-44.887326l288.848641-279.225469c5.525853-5.375427 6.762007-13.33368 3.698229-23.787776-3.060709-10.460236-7.356548-18.413372-12.876262-23.787776-5.525853-5.376451-13.621229-9.41237-24.369014-12.099572-10.712993-2.689249-18.845207-1.345648-24.37106 4.03285L415.412175 636.113739c-11.04352 10.758018-25.300222 17.364483-42.764989 19.756973-17.501606 2.390443-32.989345-2.987031-46.465265-16.171308-11.045567-10.753925-16.717753-24.533766-17.014512-41.303708-0.300852-16.766872 6.607488-32.004925 20.711717-45.784766l317.362045-307.942511c33.143864-32.302707 66.093301-49.218982 98.898451-50.711985 32.803103-1.459235 62.397119 10.342556 88.779999 35.474956 14.106276 13.744026 25.113981 28.719088 33.100886 44.889373 7.985882 16.171308 12.129248 32.751938 12.4301 49.819662 0.295735 17.026792-3.058662 34.240849-10.112312 51.607378-7.05672 17.32969-18.8493 34.096563-35.418674 50.26787L483.524458 766.259868c-16.537651 16.170285-36.462446 29.016871-59.785641 38.614459-23.326265 9.597589-47.846728 15.123442-73.594135 16.615423-25.750477 1.534959-51.688219-2.049682-77.739549-10.749832-26.045189-8.66638-49.817616-23.49511-71.276347-44.443212-23.924899-23.338544-40.454364-47.578622-49.675376-72.707952-9.216919-25.169239-12.872169-50.005904-11.045567-74.540693 1.867534-24.533766 8.283664-47.574528 19.330254-69.12331 11.009751-21.546735 24.819269-40.410362 41.464367-56.577576l311.838238-301.669644c5.52176-5.376451 6.755868-13.331633 3.695159-23.787776-3.060709-10.491958-7.013741-18.411325-11.943007-23.787776-5.52176-5.41636-13.621229-9.451256-24.369014-12.138458-10.708899-2.689249-18.845207-1.343601-24.366967 4.034896L143.281287 438.561407c-22.092158 21.548782-40.3418 47.877427-54.746882 79.021751-14.405081 31.146371-22.839171 64.346517-25.304316 99.67514-2.461051 35.32453 2.429329 70.765717 14.702863 106.392122 12.281721 35.592636 34.037211 68.679196 65.311495 99.188047 31.869848 31.144324 66.50467 52.693106 103.935164 64.642253 37.391608 11.990079 74.040297 16.769942 109.906156 14.380522 35.862789-2.390443 69.895907-10.755971 102.102423-25.134447 32.171724-14.376429 59.300594-32.341592 81.392752-53.888328l352.297718-341.142657c22.092158-21.548782 38.477336-45.63434 49.223075-72.26486 10.712993-26.659173 16.083304-54.036707 16.083304-82.154092 0-28.161387-5.371334-55.532781-16.083304-82.159208C931.355997 218.489176 914.970818 194.403618 892.87866 172.854836z" /></svg>