<?xml version="1.0" standalone="no"?><!DOCTYPE svg PUBLIC "-//W3C//DTD SVG 1.1//EN" "http://www.w3.org/Graphics/SVG/1.1/DTD/svg11.dtd"><svg class="icon" width="200px" height="190.51px" viewBox="0 0 1075 1024" version="1.1" xmlns="http://www.w3.org/2000/svg"><path   d="M263.7824 410.2656h476.672V307.2h-476.672v103.0656z m-0.7168 250.3168h366.5408v-103.0656H263.0656v103.0656z m399.0016 120.4736l73.6768 72.96 81.152-80.3328V1024h104.8064v-248.9856l80.4864 79.0016L1075.2 781.056l-132.5568-131.84-73.728-72.96-206.848 204.8z"  /><path   d="M559.7184 1012.6336H226.304c-85.3504 0-154.4704-42.752-195.1232-120.2176C10.1888 852.992 0 806.912 0 760.1152V235.1104c0-71.4752 21.6576-128.9216 65.7408-170.3424C133.4784 0.6656 224.256 0 239.2064 0h567.808c103.68 0 161.9456 44.0832 193.792 80.8448a221.8496 221.8496 0 0 1 51.5072 142.8992v310.6304h-105.0112V223.744c0-29.3888-9.472-56.064-27.136-76.1344-25.088-29.3888-63.6928-44.032-114.4832-44.032H235.8272s-61.0304-0.7168-98.9696 36.0448c-22.3232 21.3504-33.8432 54.0672-33.8432 96.1536V760.832c0 30.0544 6.7584 59.4944 20.3264 84.8384 22.3232 43.4176 56.2176 64.1536 101.632 64.1536h333.3632v102.8608h1.3824z"  /></svg>