<?xml version="1.0" standalone="no"?><!DOCTYPE svg PUBLIC "-//W3C//DTD SVG 1.1//EN" "http://www.w3.org/Graphics/SVG/1.1/DTD/svg11.dtd"><svg class="icon" width="200px" height="200.00px" viewBox="0 0 1024 1024" version="1.1" xmlns="http://www.w3.org/2000/svg"><path   d="M425.274996 70.105829A88.262857 88.262857 0 0 1 511.967826 0.000683c42.117697 0 78.433119 29.35269 86.692829 70.105146h125.465685c29.420952 0 53.244415 23.550414 53.244415 52.561794 0 29.079642-23.823463 52.561794-53.244415 52.561794H299.809311a52.971367 52.971367 0 0 1-53.244415-52.561794c0-29.01138 23.823463-52.561794 53.244415-52.561794H425.274996z m-28.328759 652.380606c-12.287173 0-24.096511 4.778345-32.834056 13.311104a45.394277 45.394277 0 0 0-13.652414 32.287959c0 12.082386 4.983131 23.686938 13.652414 32.219697 8.737545 8.532759 20.478621 13.311104 32.765794 13.311104h373.87136c12.287173 0 24.096511-4.778345 32.765793-13.242841a45.394277 45.394277 0 0 0 13.652414-32.28796 45.394277 45.394277 0 0 0-13.652414-32.287959 46.691256 46.691256 0 0 0-32.765793-13.311104H396.946237z m-139.391147 0c-12.287173 0-24.096511 4.778345-32.765794 13.311104a45.394277 45.394277 0 0 0-13.652414 32.287959c0 12.082386 4.914869 23.686938 13.652414 32.219697 8.669283 8.532759 20.478621 13.311104 32.765794 13.311104s24.096511-4.778345 32.765793-13.311104a45.394277 45.394277 0 0 0 13.652414-32.219697 45.394277 45.394277 0 0 0-13.652414-32.287959 46.622994 46.622994 0 0 0-32.765793-13.311104zM350.459767 585.689246c0 12.150649 4.914869 23.7552 13.652414 32.28796s20.478621 13.311104 32.765794 13.311103h373.87136c12.287173 0 24.096511-4.778345 32.765793-13.311103a45.394277 45.394277 0 0 0 13.652414-32.28796 45.394277 45.394277 0 0 0-13.652414-32.287959 46.622994 46.622994 0 0 0-32.765793-13.311104H396.946237c-12.287173 0-24.096511 4.778345-32.834056 13.311104a45.394277 45.394277 0 0 0-13.652414 32.287959z m-92.904677-45.599063a46.622994 46.622994 0 0 0-40.274622 22.799532 44.779918 44.779918 0 0 0 0 45.599063c10.512359 17.884662 31.946649 26.622207 52.152222 21.297766a46.008635 46.008635 0 0 0 34.540607-44.097298 45.394277 45.394277 0 0 0-13.652414-32.287959 46.622994 46.622994 0 0 0-32.765793-13.311104z m0-182.259728a46.691256 46.691256 0 0 0-40.274622 22.799532 44.779918 44.779918 0 0 0 0 45.599063c10.512359 17.884662 31.946649 26.622207 52.220484 21.297766a46.008635 46.008635 0 0 0 34.472345-44.097298 46.008635 46.008635 0 0 0-46.418207-45.599063z m139.391147 0c-12.287173 0-24.096511 4.778345-32.765794 13.311104a45.394277 45.394277 0 0 0-13.720676 32.287959c0 12.082386 4.914869 23.686938 13.652414 32.28796 8.737545 8.532759 20.478621 13.311104 32.765794 13.242841h373.87136c12.287173 0.068262 24.096511-4.710083 32.765793-13.242841a45.394277 45.394277 0 0 0 13.652414-32.28796 45.394277 45.394277 0 0 0-13.652414-32.287959 46.622994 46.622994 0 0 0-32.765793-13.311104H396.946237zM219.942689 112.496575v22.799531a69.012953 69.012953 0 0 0 69.627312 68.330332h444.79565c18.430759 0.068262 36.110635-7.099255 49.148691-19.932524a68.125546 68.125546 0 0 0 20.478621-48.397808v-22.799531h92.904678c24.574345 0 48.193022 9.55669 65.531587 26.622207 17.47509 17.065518 27.304828 40.274622 27.37309 64.507656v729.175436a90.788554 90.788554 0 0 1-27.304828 64.575919c-17.47509 17.065518-41.025504 26.622207-65.599849 26.553945H126.969749c-24.574345 0-48.261284-9.55669-65.736374-26.69047A90.310719 90.310719 0 0 1 34.133333 932.801874V203.626438a90.788554 90.788554 0 0 1 27.304828-64.507656c17.47509-17.065518 41.025504-26.622207 65.59985-26.622207h92.904678z"  /></svg>