<?xml version="1.0" standalone="no"?><!DOCTYPE svg PUBLIC "-//W3C//DTD SVG 1.1//EN" "http://www.w3.org/Graphics/SVG/1.1/DTD/svg11.dtd"><svg class="icon" width="200px" height="200.00px" viewBox="0 0 1024 1024" version="1.1" xmlns="http://www.w3.org/2000/svg"><path   d="M311.9 442.3H714c12.2 0 22-9.8 22-22s-9.8-22-22-22H311.9c-12.2 0-22 9.8-22 22s9.8 22 22 22zM311.9 266.4h402.2c12.1 0 21.9-9.8 21.9-22s-9.8-22-22-22H311.9c-12.2 0-22 9.8-22 22s9.8 22 22 22zM947.8 322l-35.9-21.6V165.2c0-60-48.8-108.8-108.8-108.8H222.8c-60 0-108.8 48.8-108.8 108.8V300l-35.3 22.2c-29.9 18.3-48.4 51.4-48.4 86.4V838c0 55.8 45.4 101.3 101.3 101.3h762.8c55.9 0 101.4-45.5 101.3-101.5V408.1c0-35.3-17.9-67.5-47.9-86.1z m-23.1 37.5c11.6 7.3 20 18.1 24.1 30.7l-36.9 22.2v-60.6l12.8 7.7zM222.8 100.4h580.4c35.7 0 64.8 29.1 64.8 64.8v273.5L555.1 626.6c-31.2 18.8-69.9 18.5-100.9-0.6L158 443.2v-278c0-35.7 29.1-64.8 64.8-64.8z m-121 259.2l12.2-7.7V416l-37.5-23.1c3.9-13.7 12.9-25.8 25.3-33.3z m792.6 535.5H131.6c-31.6 0-57.3-25.7-57.3-57.3V443.3l356.8 220.2c22.7 14.1 48.4 21.1 74 21.1 25.1 0 50.1-6.7 72.6-20.2l374-224.6v398c0 31.6-25.7 57.3-57.3 57.3z" /></svg>