<?xml version="1.0" standalone="no"?><!DOCTYPE svg PUBLIC "-//W3C//DTD SVG 1.1//EN" "http://www.w3.org/Graphics/SVG/1.1/DTD/svg11.dtd"><svg class="icon" width="200px" height="200.00px" viewBox="0 0 1024 1024" version="1.1" xmlns="http://www.w3.org/2000/svg"><path   d="M355.72769398 275.75508124l0 472.55858734 312.49842055-236.27929367z"  /><path   d="M355.72769398 755.93558111c-1.52438251 0-2.28657398 0-3.048765-0.7621915-2.28657398-1.52438251-4.57314752-3.8109565-4.57314752-6.85972103L348.10578145 275.75508124C348.10578145 272.70631624 349.63016396 270.41974222 352.67892897 268.89535971c2.28657398-1.52438251 5.33533902-0.76219149 7.62191301 0.76219149l312.49842055 236.27929367c1.52438251 1.52438251 3.04876501 3.8109565 3.04876501 6.09753004s-0.76219149 4.57314752-3.04876501 6.09753004l-312.49842055 236.27929365c-1.52438251 0.76219149-3.04876501 1.52438251-4.573148 1.52438251zM363.34960701 290.9989068l0 442.07093618 291.91925595-221.03546807L363.34960701 290.9989068z"  /></svg>