<?xml version="1.0" standalone="no"?><!DOCTYPE svg PUBLIC "-//W3C//DTD SVG 1.1//EN" "http://www.w3.org/Graphics/SVG/1.1/DTD/svg11.dtd"><svg class="icon" width="200px" height="200.00px" viewBox="0 0 1024 1024" version="1.1" xmlns="http://www.w3.org/2000/svg"><path   d="M691.2 870.4c-121.582933 0-243.234133-32.017067-243.234133-102.4 0-32.017067 6.417067-64.034133 25.6-102.4 32.085333-76.8 115.234133-134.417067 217.634133-134.417067 108.817067 0 198.382933 70.4512 230.4 179.2 6.417067 12.834133 6.417067 38.434133 6.417067 64.034134 6.417067 63.965867-115.234133 95.982933-236.817067 95.982933M377.582933 403.182933h-204.8c-25.6 0-44.782933-19.182933-44.782933-38.365866s19.182933-44.782933 44.782933-44.782934h204.8a43.690667 43.690667 0 0 1 44.8512 44.782934c0 25.6-19.2512 38.365867-44.8512 38.365866m12.834134 185.617067H160.017067c-19.182933 0-32.017067-19.182933-32.017067-44.782933s12.834133-44.8512 32.017067-44.8512h230.4c19.182933 0 32.017067 19.2512 32.017066 44.8512 0 25.6-12.834133 44.782933-32.085333 44.782933m-127.931733 185.617067H172.714667a43.690667 43.690667 0 0 1-44.782934-44.782934 43.690667 43.690667 0 0 1 44.782934-44.8512h89.634133a43.690667 43.690667 0 0 1 44.782933 44.8512c-6.417067 25.6-25.6 44.782933-44.782933 44.782934M678.365867 223.914667a128.341333 128.341333 0 0 1 128.068266 128 128.341333 128.341333 0 0 1-128.068266 128 128.341333 128.341333 0 0 1-127.931734-128 128.341333 128.341333 0 0 1 127.931734-128M831.965867 0H192.1024C83.217067 0 0 83.217067 0 192.034133v640C0 940.714667 83.217067 1024 192.034133 1024h640C940.714667 1024 1024 940.782933 1024 832.034133V192.034133C1024 83.217067 940.782933 0 832.034133 0"  /></svg>