<?xml version="1.0" standalone="no"?><!DOCTYPE svg PUBLIC "-//W3C//DTD SVG 1.1//EN" "http://www.w3.org/Graphics/SVG/1.1/DTD/svg11.dtd"><svg class="icon" width="200px" height="200.00px" viewBox="0 0 1024 1024" version="1.1" xmlns="http://www.w3.org/2000/svg"><path d="M486.527363 0.305672a253.987662 253.987662 0 1 1-0.050945 507.975323c-140.272716-0.015284-253.972378-113.740418-253.962189-254.013134C232.529512 113.995144 346.254647 0.290388 486.527363 0.305672" fill="#231916" /><path d="M405.993075 594.521154h210.944c180.580617 0 326.987144 147.216557 326.987144 328.923065v21.193234c0 71.56792-146.406527 74.26802-326.987144 74.26802H406.04402c-180.631562 0-327.03809-0.101891-327.03809-74.273115v-21.193234c0-181.650468 146.406527-328.91797 326.987145-328.91797M500.944876 0.305672c139.829493 0 253.172537 114.005333 253.172537 254.64995 0 140.593672-113.444935 254.64995-253.172537 254.64995S247.772338 395.600239 247.772338 254.955622C247.772338 114.36195 361.115383 0.254726 500.944876 0.254726M863.461254 465.27809l12.420457-276.525851h-67.507582l12.420458 276.525851h42.666667z m-21.600796 109.099303c10.800398 0 20.520756-3.780139 28.621054-10.800398 7.560279-7.565373 11.340418-16.745711 11.340418-28.086129 0-11.345512-3.780139-20.525851-11.340418-27.54611-7.560279-7.560279-17.280637-10.800398-28.626149-10.800398-10.800398 0-19.980736 3.240119-27.541015 10.800398-8.100299 7.020259-11.885532 16.200597-11.885532 27.54611 0 10.800398 3.785234 19.980736 11.885532 27.541015 7.560279 7.565373 16.740617 11.345512 27.541015 11.345512z" fill="#2C64FF" /></svg>