<?xml version="1.0" standalone="no"?><!DOCTYPE svg PUBLIC "-//W3C//DTD SVG 1.1//EN" "http://www.w3.org/Graphics/SVG/1.1/DTD/svg11.dtd"><svg class="icon" width="200px" height="200.00px" viewBox="0 0 1024 1024" version="1.1" xmlns="http://www.w3.org/2000/svg"><path   d="M775.466667 512h-211.2v-52.8H512V512H248.533333v158.4h52.8v-105.6h474.666667v105.6h52.8V512h-53.333333z"  /><path   d="M833.066667 674.666667h-61.866667v-105.6H305.6v105.6H243.733333V507.2h263.466667v-52.8h61.866667v52.8h263.466666v167.466667z m-52.8-9.066667h43.733333v-149.333333H560V464h-43.733333v52.8H252.8v149.333333h43.733333V560h483.733334v105.6z"  /><path   d="M670.4 195.733333v211.2H406.4V195.733333h264m0-52.8H406.4c-31.466667 0-52.8 21.333333-52.8 52.8v211.2c0 31.466667 21.333333 52.8 52.8 52.8h263.466667c31.466667 0 52.8-21.333333 52.8-52.8V195.733333c0.533333-32-20.8-52.8-52.266667-52.8z m210.666667 527.466667v211.2h-211.2v-211.2h211.2m0-52.8h-211.2c-31.466667 0-52.8 21.333333-52.8 52.8v211.2c0 31.466667 21.333333 52.8 52.8 52.8h211.2c31.466667 0 52.8-21.333333 52.8-52.8v-211.2c0-32-21.333333-52.8-52.8-52.8z m-474.666667 52.8v211.2H195.733333v-211.2h210.666667m0-52.8H195.733333c-31.466667 0-52.8 21.333333-52.8 52.8v211.2c0 31.466667 21.333333 52.8 52.8 52.8h211.2c31.466667 0 52.8-21.333333 52.8-52.8v-211.2c-0.533333-32-21.333333-52.8-53.333333-52.8z"  /><path   d="M881.066667 938.666667h-211.2c-34.133333 0-57.066667-22.933333-57.066667-57.066667v-211.2c0-34.133333 22.933333-57.066667 57.066667-57.066667h211.2c34.133333 0 57.066667 22.933333 57.066666 57.066667v211.2c0.533333 33.6-22.933333 57.066667-57.066666 57.066667z m-210.666667-316.8c-29.333333 0-48 18.666667-48 48v211.2c0 29.333333 18.666667 48 48 48h211.2c29.333333 0 48-18.666667 48-48v-211.2c0-29.333333-18.666667-48-48-48h-211.2zM406.4 938.666667H195.733333c-34.133333 0-57.066667-22.933333-57.066666-57.066667v-211.2c0-34.133333 22.933333-57.066667 57.066666-57.066667h211.2c34.133333 0 57.066667 22.933333 57.066667 57.066667v211.2c0 33.6-23.466667 57.066667-57.6 57.066667z m-210.666667-316.8c-29.333333 0-48 18.666667-48 48v211.2c0 29.333333 18.666667 48 48 48h211.2c29.333333 0 48-18.666667 48-48v-211.2c0-29.333333-18.666667-48-48-48H195.733333z m690.133334 264h-220.266667v-220.266667h220.266667v220.266667z m-211.2-9.066667h202.133333v-202.133333h-202.133333v202.133333z m-263.466667 9.066667H190.933333v-220.266667h220.266667v220.266667z m-211.2-9.066667h202.133333v-202.133333H200v202.133333zM670.4 464H406.4c-34.133333 0-57.066667-22.933333-57.066667-57.066667V195.733333c0-34.133333 22.933333-57.066667 57.066667-57.066666h263.466667c34.133333 0 57.066667 22.933333 57.066666 57.066666v211.2c0.533333 33.6-22.4 57.066667-56.533333 57.066667zM406.4 147.2c-29.333333 0-48 18.666667-48 48v211.2c0 29.333333 18.666667 48 48 48h263.466667c29.333333 0 48-18.666667 48-48V195.733333c0-29.333333-18.666667-48-48-48H406.4z m268.266667 264H402.133333V190.933333h272.533334v220.266667z m-263.466667-9.066667h254.4V200H411.2v202.133333z"  /></svg>