<?xml version="1.0" standalone="no"?><!DOCTYPE svg PUBLIC "-//W3C//DTD SVG 1.1//EN" "http://www.w3.org/Graphics/SVG/1.1/DTD/svg11.dtd"><svg class="icon" width="200px" height="199.42px" viewBox="0 0 1027 1024" version="1.1" xmlns="http://www.w3.org/2000/svg"><path   d="M983.872122 710.505013A511.938783 511.938783 0 1 1 1023.962991 511.911176a507.497579 507.497579 0 0 1-40.090869 198.593837zM513.824695 78.233609A433.677567 433.677567 0 1 0 947.502263 511.911176 434.157697 434.157697 0 0 0 513.824695 78.233609z m238.204576 531.684136h-288.078096a35.589648 35.589648 0 0 1-35.529632-35.529632v-21.305776V235.836334a39.970836 39.970836 0 0 1 39.970836-39.91082h2.640716a39.970836 39.970836 0 0 1 39.970836 39.91082v291.499023h241.265405a40.030852 40.030852 0 0 1 39.970836 39.970836v2.640716a40.030852 40.030852 0 0 1-40.210901 39.970836z" /></svg>