<?xml version="1.0" standalone="no"?><!DOCTYPE svg PUBLIC "-//W3C//DTD SVG 1.1//EN" "http://www.w3.org/Graphics/SVG/1.1/DTD/svg11.dtd"><svg class="icon" width="200px" height="200.00px" viewBox="0 0 1024 1024" version="1.1" xmlns="http://www.w3.org/2000/svg"><path d="M682.7 682.7c23.6 0 42.7 19.1 42.7 42.7v85.3c0 23.6-19.1 42.7-42.7 42.7S640 834.2 640 810.7v-85.3c0-23.6 19.1-42.7 42.7-42.7z m0-213.4c23.6 0 42.7 19.1 42.7 42.7v85.3c0 23.6-19.1 42.7-42.7 42.7S640 620.9 640 597.3V512c0-23.6 19.1-42.7 42.7-42.7zM512 682.7c23.6 0 42.7 19.1 42.7 42.7v85.3c0 23.6-19.1 42.7-42.7 42.7s-42.7-19.1-42.7-42.7v-85.3c0-23.6 19.1-42.7 42.7-42.7z m0-213.4c23.6 0 42.7 19.1 42.7 42.7v85.3c0 23.6-19.1 42.7-42.7 42.7s-42.7-19.1-42.7-42.7V512c0-23.6 19.1-42.7 42.7-42.7z" fill="#00A2FF" /><path d="M341.3 896h512V469.3c0-47.1-38.2-85.3-85.3-85.3H426.7c-47.1 0-85.3 38.2-85.3 85.3V896z m597.4 0c0 23.6-19.1 42.7-42.7 42.7s-42.7-19.1-42.7-42.7h-512c0 23.6-19.1 42.7-42.7 42.7s-42.7-19.1-42.7-42.7V469.3c0-94.3 76.4-170.7 170.7-170.7h170.7V256c0-47.1-38.2-85.3-85.3-85.3H256c-47.1 0-85.3 38.2-85.3 85.3v640c0 23.6-19.1 42.7-42.7 42.7S85.3 919.6 85.3 896V256c0-94.3 76.4-170.7 170.7-170.7h256c94.3 0 170.7 76.4 170.7 170.7v42.7H768c94.3 0 170.7 76.4 170.7 170.7V896z" fill="#666666" /></svg>