<?xml version="1.0" standalone="no"?><!DOCTYPE svg PUBLIC "-//W3C//DTD SVG 1.1//EN" "http://www.w3.org/Graphics/SVG/1.1/DTD/svg11.dtd"><svg class="icon" width="200px" height="187.55px" viewBox="0 0 1092 1024" version="1.1" xmlns="http://www.w3.org/2000/svg"><path   d="M936.211799 711.838385a156.046677 156.046677 0 1 0 0 312.161615 156.046677 156.046677 0 0 0 0-312.161615z m-780.233384-0.682619a155.978415 155.978415 0 1 0 0 311.956829 155.978415 155.978415 0 0 0 0-311.956829z m377.078671-4.232237a155.978415 155.978415 0 1 0 0 311.956829 155.978415 155.978415 0 0 0 0-311.956829zM174.067815 531.831785c0-17.133734 12.28714-31.059159 27.304756-31.059159h297.075738v138.298586h75.088077V500.772626h297.758357c14.81283 0 27.373017 14.266735 27.373017 31.059159v107.239427h75.088077v-107.171165c0-55.29213-45.940251-100.344976-102.392832-100.344976H573.468124V306.840601A156.114939 156.114939 0 0 0 533.057086 0.003413a155.978415 155.978415 0 0 0-34.608777 308.202426v123.417494H201.372571c-56.452582 0-102.392833 44.916323-102.392833 100.208452v107.239427h75.088077v-107.171165z"  /></svg>