<?xml version="1.0" standalone="no"?><!DOCTYPE svg PUBLIC "-//W3C//DTD SVG 1.1//EN" "http://www.w3.org/Graphics/SVG/1.1/DTD/svg11.dtd"><svg class="icon" width="200px" height="193.21px" viewBox="0 0 1060 1024" version="1.1" xmlns="http://www.w3.org/2000/svg"><path   d="M658.432 804.352h73.142857l0.365714 218.806857-73.508571 0.512v-219.318857z m146.285714 73.325714l73.179429-0.292571v146.102857h-73.142857V877.714286z m146.322286-146.395428h73.142857v292.205714h-73.142857v-292.205714z m-438.930286 146.102857h73.142857v146.285714l-73.142857-0.182857v-146.102857z m-18.066285-73.252572l-51.858286-51.638857 206.738286-206.738285 155.172571 155.209142 155.392-155.355428 51.712 51.712-206.994286 206.994286-155.209143-155.172572-154.953142 154.989714z"  /><path   d="M951.04 0.219429L0 0.292571v950.491429h438.966857v-73.033143L73.142857 877.824 73.142857 73.508571h804.754286v365.970286h73.142857V0.219429z"  /><path   d="M146.322286 292.790857h438.930285V219.794286H146.322286v73.033143z m0 146.029714L512.109714 438.857143v-73.033143H146.322286v72.96z m0 146.651429h219.465143v-73.033143h-219.428572v73.033143z"  /></svg>