<?xml version="1.0" standalone="no"?><!DOCTYPE svg PUBLIC "-//W3C//DTD SVG 1.1//EN" "http://www.w3.org/Graphics/SVG/1.1/DTD/svg11.dtd"><svg class="icon" width="200px" height="200.00px" viewBox="0 0 1024 1024" version="1.1" xmlns="http://www.w3.org/2000/svg"><path d="M170.3936 664.917333a57.070933 57.070933 0 0 0-49.152 27.579734 54.203733 54.203733 0 0 0 0 55.432533 57.070933 57.070933 0 0 0 49.152 27.648 56.183467 56.183467 0 0 0 56.866133-55.364267 56.1152 56.1152 0 0 0-56.866133-55.296m0-110.7968c94.071467 0 170.3936 74.410667 170.3936 166.161067s-76.322133 166.161067-170.3936 166.161067S0 812.032 0 720.213333s76.322133-166.161067 170.3936-166.161066m0-442.845867a57.070933 57.070933 0 0 0-49.152 27.648 54.203733 54.203733 0 0 0 0 55.364267 57.070933 57.070933 0 0 0 49.152 27.716266 56.183467 56.183467 0 0 0 56.866133-55.432533 56.046933 56.046933 0 0 0-56.866133-55.296m0-110.865067c94.071467 0 170.3936 74.410667 170.3936 166.161067S264.465067 332.731733 170.3936 332.731733 0 258.321067 0 166.570667C0.136533 74.820267 76.322133 0.4096 170.3936 0.4096" fill="#2C90FF" /><path d="M449.672533 971.776h417.723734v-104.448H449.672533v104.448z m0-522.103467h417.723734V345.2928H449.672533v104.448zM1024 763.016533H449.672533V658.432H1024v104.448H1024z m0-522.103466H449.672533V136.533333H1024v104.448H1024zM136.533333 1024h104.448v-261.051733H136.533333V1024z m0-417.655467V293.0688h104.448V606.208H136.533333v0.136533z" fill="#3E98FF" /></svg>