<?xml version="1.0" standalone="no"?><!DOCTYPE svg PUBLIC "-//W3C//DTD SVG 1.1//EN" "http://www.w3.org/Graphics/SVG/1.1/DTD/svg11.dtd"><svg class="icon" width="200px" height="200.00px" viewBox="0 0 1024 1024" version="1.1" xmlns="http://www.w3.org/2000/svg"><path   d="M941.511111 409.6h-85.333333c-8.533333-17.066667-19.911111-54.044444-34.133334-79.644444L881.777778 270.222222c19.911111-19.911111 19.911111-48.355556 0-68.266666l-68.266667-68.266667c-19.911111-19.911111-48.355556-19.911111-68.266667 0l-56.888888 59.733333c-25.6-14.222222-62.577778-25.6-79.644445-34.133333v-85.333333c0-25.6-28.444444-48.355556-54.044444-48.355556h-96.711111c-25.6 0-54.044444 22.755556-54.044445 48.355556v85.333333c-17.066667 8.533333-54.044444 19.911111-79.644444 34.133333l-56.888889-56.888889c-19.911111-19.911111-48.355556-19.911111-68.266667 0L130.844444 204.8c-19.911111 19.911111-19.911111 48.355556 0 68.266667l59.733334 56.888889c-14.222222 25.6-25.6 62.577778-34.133334 79.644444h-85.333333c-25.6 0-48.355556 28.444444-48.355555 54.044444v96.711112c0 25.6 22.755556 54.044444 48.355555 54.044444h85.333333c8.533333 17.066667 19.911111 54.044444 34.133334 79.644444l-59.733334 59.733334c-19.911111 19.911111-19.911111 48.355556 0 68.266666L199.111111 887.466667c19.911111 19.911111 48.355556 19.911111 68.266667 0l56.888889-59.733334c25.6 14.222222 62.577778 25.6 79.644444 34.133334v85.333333c0 25.6 28.444444 48.355556 54.044445 48.355556h96.711111c25.6 0 54.044444-22.755556 54.044444-48.355556v-85.333333c17.066667-8.533333 54.044444-19.911111 79.644445-34.133334l59.733333 59.733334c19.911111 19.911111 48.355556 19.911111 68.266667 0l68.266666-68.266667c19.911111-19.911111 19.911111-48.355556 0-68.266667l-59.733333-56.888889c14.222222-25.6 25.6-62.577778 34.133333-79.644444h85.333334c25.6 0 48.355556-28.444444 48.355555-54.044444v-96.711112c-2.844444-25.6-22.755556-54.044444-51.2-54.044444z m-435.2 278.755556c-96.711111 0-176.355556-79.644444-176.355555-176.355556 0-96.711111 79.644444-176.355556 176.355555-176.355556 96.711111 0 176.355556 79.644444 176.355556 176.355556 0 96.711111-76.8 176.355556-176.355556 176.355556z" /></svg>