<?xml version="1.0" standalone="no"?><!DOCTYPE svg PUBLIC "-//W3C//DTD SVG 1.1//EN" "http://www.w3.org/Graphics/SVG/1.1/DTD/svg11.dtd"><svg class="icon" width="200px" height="200.00px" viewBox="0 0 1024 1024" version="1.1" xmlns="http://www.w3.org/2000/svg"><path   d="M745.058 1023.688c-148.4 0-268.694-120.24-268.694-268.569 0-148.32 120.295-268.567 268.694-268.567 148.405 0 268.699 120.247 268.699 268.567C1013.757 903.448 893.463 1023.688 745.058 1023.688zM745.188 537.599c-120.17 0-217.599 97.43-217.599 217.599s97.43 217.599 217.599 217.599 217.599-97.43 217.599-217.599S865.358 537.599 745.188 537.599zM854.423 843.568l-132.325-51.76c-0.05-0.03-0.08-0.08-0.155-0.105-1.405-0.615-2.505-1.665-3.785-2.505-1.385-0.9-2.95-1.59-4.1-2.74-3.07-3.075-4.915-7.09-6.04-11.42-0.59-2.1-1.18-4.15-1.23-6.35l0-129.69c0-13.59 11.01-24.6 24.6-24.6l2 0c13.59 0 24.6 11.01 24.6 24.6l0 113.15 112.49 44.01c12.16 4.76 18.455 19.225 14.025 32.33C880.048 841.573 866.583 848.328 854.423 843.568zM783.588 178.945c0-28.29-22.91-51.2-51.2-51.2l-51.2 0L681.188 76.8l51.2 0c56.55 0 102.4 45.85 102.4 102.4l0 268.952c-16.56-4.813-33.665-8.32-51.2-10.445L783.588 178.945zM630.988 204.8l-2 0c-13.59 0-24.6-11.007-24.6-24.602L604.388 24.603c0-13.595 11.01-24.602 24.6-24.602l2 0c13.59 0 24.6 11.007 24.6 24.602l0 155.595C655.588 193.792 644.578 204.8 630.988 204.8zM271.589 76.8l307.199 0 0 50.945L271.589 127.745 271.589 76.8zM221.387 204.8l-1.995 0c-13.595 0-24.602-11.007-24.602-24.602L194.79 24.603C194.789 11.008 205.797 0 219.392 0l1.995 0c13.595 0 24.602 11.007 24.602 24.602l0 155.595C245.989 193.792 234.982 204.8 221.387 204.8zM220.389 357.017l0 2.765c0 13.39-10.83 24.217-24.217 24.217l-2.765 0c-13.387 0-24.217-10.827-24.217-24.217l0-2.765c0-13.39 10.83-24.217 24.217-24.217l2.765 0C209.559 332.799 220.389 343.627 220.389 357.017zM196.172 537.599l-2.765 0c-13.387 0-24.217-10.83-24.217-24.217l0-2.765c0-13.39 10.83-24.217 24.217-24.217l2.765 0c13.387 0 24.217 10.827 24.217 24.217l0 2.765C220.389 526.769 209.559 537.599 196.172 537.599zM220.389 666.978c0 13.39-10.83 24.22-24.217 24.22l-2.765 0c-13.387 0-24.217-10.83-24.217-24.22l0-2.76c0-13.39 10.83-24.22 24.217-24.22l2.765 0c13.387 0 24.217 10.83 24.217 24.22L220.389 666.978zM296.192 639.998l150.707 0c-6.375 16.49-11.7 33.51-15.285 51.2L296.192 691.198c-13.595 0-24.602-11.01-24.602-24.6l0-1.97C271.589 651.008 282.597 639.998 296.192 639.998zM271.589 360.012l0-3.2c0-13.26 10.752-24.012 23.987-24.012l387.222 0c13.24 0 23.99 10.753 23.99 24.012l0 3.2c0 13.235-10.75 23.987-23.99 23.987L295.577 383.999C282.342 383.999 271.589 373.247 271.589 360.012zM296.192 537.599c-13.595 0-24.602-11.01-24.602-24.602l0-1.995c0-13.595 11.007-24.602 24.602-24.602l275.762 0c-22.425 14.49-42.83 31.72-60.925 51.2L296.192 537.6zM66.79 178.945l0 665.598c0 28.285 22.912 51.2 51.2 51.2l340.044 0c8.935 18.2 19.507 35.405 31.59 51.455L117.99 947.198c-56.55 0-102.4-45.85-102.4-102.4L15.59 179.2c0-56.55 45.85-102.4 102.4-102.4l51.2 0 0 50.945-51.2 0C89.702 127.745 66.79 150.655 66.79 178.945z" /></svg>