<?xml version="1.0" standalone="no"?><!DOCTYPE svg PUBLIC "-//W3C//DTD SVG 1.1//EN" "http://www.w3.org/Graphics/SVG/1.1/DTD/svg11.dtd"><svg class="icon" width="200px" height="200.00px" viewBox="0 0 1024 1024" version="1.1" xmlns="http://www.w3.org/2000/svg"><path   d="M829.76 835.008a153.984 153.984 0 0 1-217.472 0 153.28 153.28 0 0 1 0-217.024 154.048 154.048 0 0 1 217.472 0 153.28 153.28 0 0 1 0 217.024z m177.728 121.28l-96.192-96a232.128 232.128 0 0 0-25.28-298.432 233.664 233.664 0 0 0-329.984 0 232.576 232.576 0 0 0 0 329.344 233.28 233.28 0 0 0 299.008 25.216l96.256 96a39.744 39.744 0 0 0 56.256-56.128zM323.2 762.688c21.888 0 39.744-17.92 39.744-39.68 0-21.888-17.92-39.744-39.744-39.744h-112.64a39.872 39.872 0 0 0-39.808 39.68c0 21.824 17.92 39.68 39.744 39.68H323.2z m112.64-294.272H210.56a39.872 39.872 0 0 0-39.808 39.68c0 21.824 17.92 39.68 39.744 39.68H435.84a39.872 39.872 0 0 0 39.744-39.68c0-21.76-17.92-39.68-39.744-39.68zM210.56 253.568a39.872 39.872 0 0 0-39.808 39.68c0 21.824 17.92 39.68 39.744 39.68h450.752c21.888 0 39.808-17.856 39.808-39.68 0-21.824-17.92-39.68-39.808-39.68H210.432z"  /><path   d="M426.368 925.184H132.48a53.12 53.12 0 0 1-52.992-52.864V132.16a53.12 53.12 0 0 1 52.992-52.864h608a53.12 53.12 0 0 1 52.992 52.864v253.44a39.68 39.68 0 0 0 79.424 0V105.728C872.832 47.552 825.152 0 766.912 0H105.92C47.68 0 0 47.552 0 105.728v793.024c0 58.176 47.68 105.728 105.92 105.728h320.448a39.68 39.68 0 1 0 0-79.296"  /></svg>