<?xml version="1.0" standalone="no"?><!DOCTYPE svg PUBLIC "-//W3C//DTD SVG 1.1//EN" "http://www.w3.org/Graphics/SVG/1.1/DTD/svg11.dtd"><svg class="icon" width="200px" height="200.00px" viewBox="0 0 1024 1024" version="1.1" xmlns="http://www.w3.org/2000/svg"><path   d="M773.312 438.848H250.688c-22.4 0-37.376-14.656-37.376-36.608 0-21.888 14.976-36.544 37.376-36.544h522.688c22.4 0 37.312 14.592 37.312 36.544 0 21.952-14.912 36.608-37.376 36.608m0 219.456H250.688c-22.4 0-37.376-14.656-37.376-36.608 0-21.952 14.976-36.608 37.376-36.608h522.688c22.4 0 37.312 14.656 37.312 36.608 0 21.952-14.912 36.608-37.376 36.608m0 219.392H250.688c-22.4 0-37.376-14.592-37.376-36.544 0-22.016 14.976-36.608 37.376-36.608h522.688c22.4 0 37.312 14.592 37.312 36.608 0 21.952-14.912 36.544-37.376 36.544M250.688 146.304h224c22.4 0 37.312 14.592 37.312 36.544 0 21.952-14.912 36.608-37.312 36.608h-224c-22.4 0-37.376-14.592-37.376-36.608 0-21.952 14.976-36.544 37.376-36.544M810.688 0H213.312C131.2 0 64 65.856 64 146.304v731.392C64 958.144 131.2 1024 213.312 1024h597.376C892.8 1024 960 958.144 960 877.696V146.304C960 65.856 892.8 0 810.688 0"  /></svg>