<?xml version="1.0" standalone="no"?><!DOCTYPE svg PUBLIC "-//W3C//DTD SVG 1.1//EN" "http://www.w3.org/Graphics/SVG/1.1/DTD/svg11.dtd"><svg class="icon" width="200px" height="200.00px" viewBox="0 0 1024 1024" version="1.1" xmlns="http://www.w3.org/2000/svg"><path   d="M511.552028 923.334292c-227.121805 0-412.070246-184.564465-412.070246-411.494282s184.820449-412.262234 412.070246-412.262234c227.185801 0 412.00625 184.564465 412.00625 411.494282s-184.948441 412.262234-412.00625 412.262234m0-923.014312C229.521655 0.31998 0.031998 229.489657 0.031998 511.20005c0 281.646397 229.489657 511.456034 511.52003 511.456034S1022.944066 793.614399 1022.944066 512.031998 793.454409 0.255984 511.552028 0.255984"  /><path   d="M648.759453 320.043997H381.448159C347.210299 320.043997 320.011999 350.058121 320.011999 385.959878v287.022061c0 36.733704 27.966252 65.91588 61.43616 65.91588h267.247298c34.173864 0 61.43616-29.950128 61.43616-65.91588V385.959878c0-36.669708-27.262296-65.851884-61.372164-65.851885"  /></svg>