<?xml version="1.0" standalone="no"?><!DOCTYPE svg PUBLIC "-//W3C//DTD SVG 1.1//EN" "http://www.w3.org/Graphics/SVG/1.1/DTD/svg11.dtd"><svg class="icon" width="200px" height="200.00px" viewBox="0 0 1024 1024" version="1.1" xmlns="http://www.w3.org/2000/svg"><path   d="M757.76 276.48c0-20.48-15.36-35.84-30.72-35.84H220.16c-15.36 0-30.72 15.36-30.72 35.84s15.36 35.84 30.72 35.84h506.88c15.36 0 30.72-15.36 30.72-35.84zM220.16 481.28c-15.36 0-30.72 15.36-30.72 35.84 0 20.48 15.36 35.84 30.72 35.84h266.24c15.36 0 30.72-15.36 30.72-35.84 0-20.48-15.36-35.84-30.72-35.84H220.16z"  /><path   d="M496.64 952.32H153.6c-20.48 0-40.96-20.48-40.96-40.96V112.64c0-25.6 15.36-40.96 40.96-40.96h716.8c20.48 0 40.96 20.48 40.96 40.96v389.12c0 20.48 15.36 35.84 35.84 35.84s35.84-15.36 35.84-35.84V112.64C977.92 51.2 931.84 0 870.4 0H153.6C92.16 0 46.08 51.2 46.08 112.64v798.72C46.08 972.8 92.16 1024 153.6 1024h337.92c20.48 0 35.84-15.36 35.84-35.84 5.12-20.48-10.24-35.84-30.72-35.84z"  /><path   d="M696.32 670.72c-40.96 0-71.68 25.6-87.04 61.44-15.36 35.84-5.12 76.8 20.48 107.52 15.36 20.48 40.96 30.72 66.56 30.72 10.24 0 25.6 0 35.84-5.12 35.84-15.36 56.32-51.2 56.32-87.04 5.12-61.44-40.96-107.52-92.16-107.52z m30.72 97.28c0 20.48-15.36 30.72-30.72 30.72s-30.72-10.24-30.72-30.72 15.36-30.72 30.72-30.72 30.72 10.24 30.72 30.72z"  /><path   d="M983.04 742.4c-40.96-51.2-153.6-174.08-281.6-174.08S460.8 691.2 419.84 742.4c-10.24 15.36-10.24 35.84 0 46.08 40.96 51.2 153.6 174.08 281.6 174.08s240.64-122.88 281.6-174.08c10.24-10.24 10.24-30.72 0-46.08z m-66.56 25.6c-40.96 46.08-128 133.12-220.16 133.12-92.16 0-184.32-87.04-220.16-133.12 40.96-46.08 128-133.12 220.16-133.12 97.28 0 184.32 87.04 220.16 133.12z"  /></svg>